<svg width="636" height="398" viewBox="0 0 636 398" fill="none" xmlns="http://www.w3.org/2000/svg">
<path d="M147.264 203.248C147.264 204.256 147.016 205.136 146.52 205.888C146.024 206.64 145.304 207.224 144.36 207.64C143.432 208.04 142.296 208.24 140.952 208.24C140.36 208.24 139.776 208.2 139.2 208.12C138.64 208.04 138.096 207.928 137.568 207.784C137.056 207.624 136.568 207.432 136.104 207.208V203.824C136.92 204.176 137.76 204.504 138.624 204.808C139.504 205.096 140.376 205.24 141.24 205.24C141.832 205.24 142.304 205.16 142.656 205C143.024 204.84 143.288 204.624 143.448 204.352C143.624 204.08 143.712 203.768 143.712 203.416C143.712 202.984 143.56 202.616 143.256 202.312C142.968 202.008 142.576 201.728 142.08 201.472C141.584 201.2 141.016 200.912 140.376 200.608C139.976 200.416 139.544 200.192 139.08 199.936C138.616 199.664 138.168 199.336 137.736 198.952C137.32 198.552 136.976 198.072 136.704 197.512C136.432 196.952 136.296 196.28 136.296 195.496C136.296 194.472 136.528 193.6 136.992 192.88C137.472 192.144 138.144 191.584 139.008 191.2C139.888 190.816 140.92 190.624 142.104 190.624C143 190.624 143.848 190.728 144.648 190.936C145.464 191.144 146.312 191.44 147.192 191.824L146.016 194.656C145.232 194.336 144.528 194.088 143.904 193.912C143.28 193.736 142.64 193.648 141.984 193.648C141.536 193.648 141.152 193.72 140.832 193.864C140.512 194.008 140.264 194.208 140.088 194.464C139.928 194.72 139.848 195.024 139.848 195.376C139.848 195.776 139.968 196.12 140.208 196.408C140.448 196.68 140.808 196.944 141.288 197.2C141.768 197.456 142.368 197.76 143.088 198.112C143.968 198.528 144.712 198.96 145.32 199.408C145.944 199.856 146.424 200.384 146.76 200.992C147.096 201.6 147.264 202.352 147.264 203.248ZM155.611 205.384C156.011 205.384 156.395 205.344 156.763 205.264C157.131 205.184 157.499 205.088 157.867 204.976V207.64C157.483 207.8 157.003 207.936 156.427 208.048C155.867 208.176 155.251 208.24 154.579 208.24C153.795 208.24 153.091 208.112 152.467 207.856C151.859 207.6 151.371 207.16 151.003 206.536C150.651 205.896 150.475 205.016 150.475 203.896V197.584H148.771V196.072L150.739 194.872L151.771 192.112H154.051V194.896H157.723V197.584H154.051V203.896C154.051 204.392 154.195 204.768 154.483 205.024C154.771 205.264 155.147 205.384 155.611 205.384ZM172.521 194.896V208H169.785L169.305 206.32H169.113C168.841 206.768 168.489 207.136 168.057 207.424C167.641 207.696 167.177 207.896 166.665 208.024C166.153 208.168 165.625 208.24 165.081 208.24C164.153 208.24 163.337 208.072 162.633 207.736C161.929 207.4 161.385 206.88 161.001 206.176C160.617 205.472 160.425 204.56 160.425 203.44V194.896H164.001V202.552C164.001 203.48 164.169 204.184 164.505 204.664C164.841 205.144 165.377 205.384 166.113 205.384C166.849 205.384 167.417 205.216 167.817 204.88C168.233 204.544 168.521 204.056 168.681 203.416C168.857 202.776 168.945 201.992 168.945 201.064V194.896H172.521ZM180.422 208.24C178.966 208.24 177.774 207.672 176.846 206.536C175.934 205.384 175.478 203.696 175.478 201.472C175.478 199.232 175.942 197.536 176.87 196.384C177.798 195.232 179.014 194.656 180.518 194.656C181.142 194.656 181.694 194.744 182.174 194.92C182.654 195.08 183.062 195.304 183.398 195.592C183.75 195.88 184.046 196.208 184.286 196.576H184.406C184.358 196.32 184.302 195.952 184.238 195.472C184.174 194.976 184.142 194.472 184.142 193.96V189.76H187.718V208H184.982L184.286 206.296H184.142C183.918 206.648 183.63 206.976 183.278 207.28C182.942 207.568 182.542 207.8 182.078 207.976C181.614 208.152 181.062 208.24 180.422 208.24ZM181.67 205.384C182.662 205.384 183.358 205.096 183.758 204.52C184.158 203.928 184.366 203.048 184.382 201.88V201.496C184.382 200.216 184.182 199.24 183.782 198.568C183.398 197.896 182.678 197.56 181.622 197.56C180.838 197.56 180.222 197.904 179.774 198.592C179.326 199.264 179.102 200.24 179.102 201.52C179.102 202.8 179.326 203.768 179.774 204.424C180.222 205.064 180.854 205.384 181.67 205.384ZM189.586 194.896H193.498L195.97 202.264C196.05 202.504 196.114 202.744 196.162 202.984C196.226 203.224 196.274 203.472 196.306 203.728C196.354 203.984 196.386 204.256 196.402 204.544H196.474C196.522 204.128 196.586 203.736 196.666 203.368C196.762 202.984 196.866 202.616 196.978 202.264L199.402 194.896H203.242L197.698 209.68C197.362 210.576 196.922 211.328 196.378 211.936C195.85 212.544 195.234 213 194.53 213.304C193.826 213.608 193.058 213.76 192.226 213.76C191.826 213.76 191.474 213.736 191.17 213.688C190.882 213.656 190.626 213.616 190.402 213.568V210.736C190.578 210.768 190.786 210.8 191.026 210.832C191.282 210.864 191.546 210.88 191.818 210.88C192.314 210.88 192.738 210.776 193.09 210.568C193.458 210.36 193.762 210.072 194.002 209.704C194.242 209.352 194.434 208.968 194.578 208.552L194.794 207.904L189.586 194.896Z" fill="#9E1F15"/>
<circle cx="437" cy="199" r="199" fill="#9F1F14" fill-opacity="0.2"/>
<circle cx="199" cy="199" r="197.5" stroke="#9F1F14" stroke-opacity="0.5" stroke-width="3" stroke-dasharray="6 6"/>
<path d="M423.632 190.864C425.84 190.864 427.448 191.344 428.456 192.304C429.48 193.248 429.992 194.552 429.992 196.216C429.992 196.968 429.88 197.688 429.656 198.376C429.432 199.048 429.056 199.656 428.528 200.2C428.016 200.728 427.336 201.144 426.488 201.448C425.64 201.752 424.592 201.904 423.344 201.904H421.784V208H418.16V190.864H423.632ZM423.44 193.84H421.784V198.928H422.984C423.672 198.928 424.264 198.84 424.76 198.664C425.256 198.488 425.64 198.208 425.912 197.824C426.184 197.44 426.32 196.944 426.32 196.336C426.32 195.488 426.088 194.864 425.624 194.464C425.16 194.048 424.432 193.84 423.44 193.84ZM440.262 194.656C440.438 194.656 440.646 194.664 440.886 194.68C441.126 194.696 441.318 194.72 441.462 194.752L441.198 198.112C441.086 198.08 440.918 198.056 440.694 198.04C440.486 198.008 440.302 197.992 440.142 197.992C439.678 197.992 439.23 198.056 438.798 198.184C438.366 198.296 437.974 198.48 437.622 198.736C437.286 198.992 437.014 199.336 436.806 199.768C436.614 200.184 436.518 200.704 436.518 201.328V208H432.942V194.896H435.654L436.182 197.104H436.35C436.606 196.656 436.926 196.248 437.31 195.88C437.694 195.512 438.134 195.216 438.63 194.992C439.142 194.768 439.686 194.656 440.262 194.656ZM455.276 201.424C455.276 202.512 455.124 203.48 454.82 204.328C454.532 205.176 454.108 205.896 453.548 206.488C453.004 207.064 452.34 207.504 451.556 207.808C450.772 208.096 449.884 208.24 448.892 208.24C447.98 208.24 447.132 208.096 446.348 207.808C445.58 207.504 444.916 207.064 444.356 206.488C443.796 205.896 443.356 205.176 443.036 204.328C442.732 203.48 442.58 202.512 442.58 201.424C442.58 199.968 442.836 198.744 443.348 197.752C443.86 196.744 444.596 195.976 445.556 195.448C446.516 194.92 447.652 194.656 448.964 194.656C450.196 194.656 451.284 194.92 452.228 195.448C453.172 195.976 453.916 196.744 454.46 197.752C455.004 198.744 455.276 199.968 455.276 201.424ZM446.228 201.424C446.228 202.288 446.316 203.016 446.492 203.608C446.684 204.184 446.98 204.624 447.38 204.928C447.78 205.216 448.3 205.36 448.94 205.36C449.58 205.36 450.092 205.216 450.476 204.928C450.876 204.624 451.164 204.184 451.34 203.608C451.532 203.016 451.628 202.288 451.628 201.424C451.628 200.56 451.532 199.84 451.34 199.264C451.164 198.688 450.876 198.256 450.476 197.968C450.076 197.68 449.556 197.536 448.916 197.536C447.972 197.536 447.284 197.864 446.852 198.52C446.436 199.16 446.228 200.128 446.228 201.424ZM457.175 213.76C456.775 213.76 456.359 213.728 455.927 213.664C455.479 213.616 455.111 213.552 454.823 213.472V210.664C455.111 210.728 455.383 210.776 455.639 210.808C455.895 210.856 456.183 210.88 456.503 210.88C456.983 210.88 457.391 210.744 457.727 210.472C458.063 210.2 458.231 209.672 458.231 208.888V194.896H461.807V209.416C461.807 210.216 461.655 210.944 461.351 211.6C461.047 212.256 460.551 212.776 459.863 213.16C459.191 213.56 458.295 213.76 457.175 213.76ZM458.087 191.512C458.087 190.84 458.271 190.384 458.639 190.144C459.023 189.888 459.487 189.76 460.031 189.76C460.559 189.76 461.015 189.888 461.399 190.144C461.783 190.384 461.975 190.84 461.975 191.512C461.975 192.168 461.783 192.624 461.399 192.88C461.015 193.136 460.559 193.264 460.031 193.264C459.487 193.264 459.023 193.136 458.639 192.88C458.271 192.624 458.087 192.168 458.087 191.512ZM470.944 194.656C472.16 194.656 473.2 194.888 474.064 195.352C474.944 195.816 475.624 196.488 476.104 197.368C476.584 198.248 476.824 199.328 476.824 200.608V202.336H468.376C468.408 203.344 468.704 204.136 469.264 204.712C469.84 205.288 470.632 205.576 471.64 205.576C472.488 205.576 473.256 205.496 473.944 205.336C474.632 205.16 475.344 204.896 476.08 204.544V207.304C475.44 207.624 474.76 207.856 474.04 208C473.336 208.16 472.48 208.24 471.472 208.24C470.16 208.24 469 208 467.992 207.52C466.984 207.024 466.192 206.28 465.616 205.288C465.04 204.296 464.752 203.048 464.752 201.544C464.752 200.008 465.008 198.736 465.52 197.728C466.048 196.704 466.776 195.936 467.704 195.424C468.632 194.912 469.712 194.656 470.944 194.656ZM470.968 197.2C470.28 197.2 469.704 197.424 469.24 197.872C468.792 198.32 468.528 199.016 468.448 199.96H473.464C473.464 199.432 473.368 198.96 473.176 198.544C473 198.128 472.728 197.8 472.36 197.56C471.992 197.32 471.528 197.2 470.968 197.2ZM485.052 208.24C483.756 208.24 482.652 208.008 481.74 207.544C480.828 207.064 480.132 206.328 479.652 205.336C479.172 204.344 478.932 203.072 478.932 201.52C478.932 199.92 479.204 198.616 479.748 197.608C480.292 196.6 481.044 195.856 482.004 195.376C482.98 194.896 484.1 194.656 485.364 194.656C486.26 194.656 487.036 194.744 487.692 194.92C488.364 195.096 488.948 195.304 489.444 195.544L488.388 198.304C487.828 198.08 487.3 197.896 486.804 197.752C486.324 197.608 485.844 197.536 485.364 197.536C484.74 197.536 484.22 197.688 483.804 197.992C483.388 198.28 483.076 198.72 482.868 199.312C482.676 199.888 482.58 200.616 482.58 201.496C482.58 202.36 482.684 203.08 482.892 203.656C483.116 204.216 483.436 204.64 483.852 204.928C484.268 205.2 484.772 205.336 485.364 205.336C486.116 205.336 486.78 205.24 487.356 205.048C487.932 204.84 488.492 204.56 489.036 204.208V207.256C488.492 207.608 487.916 207.856 487.308 208C486.716 208.16 485.964 208.24 485.052 208.24ZM497.572 205.384C497.972 205.384 498.356 205.344 498.724 205.264C499.092 205.184 499.46 205.088 499.828 204.976V207.64C499.444 207.8 498.964 207.936 498.388 208.048C497.828 208.176 497.212 208.24 496.54 208.24C495.756 208.24 495.052 208.112 494.428 207.856C493.82 207.6 493.332 207.16 492.964 206.536C492.612 205.896 492.436 205.016 492.436 203.896V197.584H490.732V196.072L492.7 194.872L493.732 192.112H496.012V194.896H499.684V197.584H496.012V203.896C496.012 204.392 496.156 204.768 496.444 205.024C496.732 205.264 497.108 205.384 497.572 205.384Z" fill="#9E1F15"/>
<rect x="112" y="46" width="115" height="45" rx="22.5" fill="#9E0000" fill-opacity="0.1"/>
<path d="M134 62.3281C134 63.4792 133.729 64.5156 133.188 65.4375C132.646 66.3542 131.875 67.1328 130.875 67.7734C129.875 68.4141 128.693 68.9062 127.328 69.25L126.812 68.25C128.036 67.9635 129.089 67.5625 129.969 67.0469C130.854 66.526 131.529 65.9167 131.992 65.2188C132.461 64.5156 132.698 63.75 132.703 62.9219V62.3281H134ZM133.359 63.3438H127.531V62.3281H133.359V63.3438ZM138.016 69H136.781V61.3906H138.016V69ZM138.266 70.7656H128.906V69.7812H138.266V70.7656ZM138.422 75.0469H128.781V74.0469H138.422V75.0469ZM132.062 74.5312H130.844V70.2344H132.062V74.5312ZM136.312 74.5312H135.109V70.2344H136.312V74.5312ZM151.844 75.2969H150.609V61.375H151.844V75.2969ZM144.453 62.4531C145.141 62.4531 145.753 62.651 146.289 63.0469C146.826 63.4427 147.245 64.0078 147.547 64.7422C147.849 65.4766 148 66.3281 148 67.2969C148 68.2656 147.849 69.1146 147.547 69.8438C147.245 70.5729 146.826 71.1354 146.289 71.5312C145.753 71.9271 145.141 72.125 144.453 72.125C143.766 72.125 143.154 71.9271 142.617 71.5312C142.081 71.1354 141.661 70.5729 141.359 69.8438C141.057 69.1146 140.906 68.2656 140.906 67.2969C140.906 66.3281 141.057 65.4766 141.359 64.7422C141.661 64.0078 142.081 63.4427 142.617 63.0469C143.154 62.651 143.766 62.4531 144.453 62.4531ZM144.453 63.5469C143.995 63.5469 143.586 63.7031 143.227 64.0156C142.867 64.3281 142.589 64.7682 142.391 65.3359C142.193 65.9036 142.094 66.5573 142.094 67.2969C142.094 68.0417 142.193 68.6979 142.391 69.2656C142.589 69.8281 142.867 70.263 143.227 70.5703C143.586 70.8776 143.995 71.0312 144.453 71.0312C144.917 71.0312 145.326 70.8776 145.68 70.5703C146.039 70.263 146.318 69.8281 146.516 69.2656C146.714 68.6979 146.812 68.0417 146.812 67.2969C146.812 66.5521 146.714 65.8984 146.516 65.3359C146.318 64.7682 146.039 64.3281 145.68 64.0156C145.326 63.7031 144.917 63.5469 144.453 63.5469ZM158.703 70.7031C158.698 71.3073 158.568 71.8984 158.312 72.4766C158.062 73.0547 157.698 73.5703 157.219 74.0234C156.745 74.4818 156.182 74.8333 155.531 75.0781L154.906 74.1719C155.474 73.9583 155.971 73.6667 156.398 73.2969C156.831 72.9219 157.159 72.5078 157.383 72.0547C157.612 71.6016 157.729 71.151 157.734 70.7031V69.9375H158.703V70.7031ZM158.922 70.7031C158.917 71.1771 159.01 71.6432 159.203 72.1016C159.401 72.5547 159.69 72.9714 160.07 73.3516C160.451 73.7318 160.911 74.0312 161.453 74.25L160.938 75.1875C160.286 74.9427 159.74 74.5833 159.297 74.1094C158.859 73.6406 158.534 73.112 158.32 72.5234C158.112 71.9349 158.01 71.3281 158.016 70.7031V69.9375H158.922V70.7031ZM163.844 70.7031C163.839 71.2656 163.727 71.8411 163.508 72.4297C163.294 73.0182 162.966 73.5599 162.523 74.0547C162.086 74.5495 161.557 74.9271 160.938 75.1875L160.406 74.25C160.932 74.0104 161.385 73.6901 161.766 73.2891C162.151 72.888 162.44 72.4609 162.633 72.0078C162.831 71.5495 162.927 71.1146 162.922 70.7031V69.9375H163.844V70.7031ZM164.125 70.7031C164.12 71.1823 164.229 71.6484 164.453 72.1016C164.682 72.5547 165.01 72.9635 165.438 73.3281C165.865 73.6875 166.37 73.9688 166.953 74.1719L166.344 75.0781C165.677 74.8438 165.104 74.5026 164.625 74.0547C164.146 73.612 163.781 73.1016 163.531 72.5234C163.281 71.9453 163.156 71.3385 163.156 70.7031V69.9375H164.125V70.7031ZM165.688 69.3281H164.469V61.3906H165.688V69.3281ZM158.188 62.2031C158.885 62.2031 159.51 62.3385 160.062 62.6094C160.615 62.8802 161.047 63.263 161.359 63.7578C161.672 64.2526 161.828 64.8177 161.828 65.4531C161.828 66.0781 161.672 66.6354 161.359 67.125C161.047 67.6146 160.615 67.9948 160.062 68.2656C159.51 68.5365 158.885 68.6719 158.188 68.6719C157.49 68.6719 156.865 68.5365 156.312 68.2656C155.76 67.9948 155.328 67.6146 155.016 67.125C154.703 66.6354 154.547 66.0781 154.547 65.4531C154.547 64.8177 154.703 64.2526 155.016 63.7578C155.328 63.263 155.76 62.8802 156.312 62.6094C156.865 62.3385 157.49 62.2031 158.188 62.2031ZM158.188 63.25C157.719 63.2448 157.299 63.3359 156.93 63.5234C156.56 63.7057 156.268 63.9661 156.055 64.3047C155.846 64.6432 155.745 65.026 155.75 65.4531C155.745 65.875 155.846 66.2526 156.055 66.5859C156.268 66.9141 156.557 67.1745 156.922 67.3672C157.292 67.5599 157.714 67.6562 158.188 67.6562C158.656 67.6562 159.076 67.5599 159.445 67.3672C159.815 67.1745 160.104 66.9141 160.312 66.5859C160.521 66.2526 160.625 65.875 160.625 65.4531C160.625 65.026 160.521 64.6432 160.312 64.3047C160.104 63.9661 159.812 63.7057 159.438 63.5234C159.068 63.3359 158.651 63.2448 158.188 63.25ZM179.281 66.5781H169.766V65.5938H179.281V66.5781ZM180.75 69.4688H168.031V68.4688H180.75V69.4688ZM170.984 66.0938H169.766V61.8906H170.984V66.0938ZM179.359 74.9219H169.688V73.9062H179.359V74.9219ZM170.906 74.2031H169.688V70.8906H170.906V74.2031ZM197.344 75.2969H196.109V61.375H197.344V75.2969ZM189.953 62.4531C190.641 62.4531 191.253 62.651 191.789 63.0469C192.326 63.4427 192.745 64.0078 193.047 64.7422C193.349 65.4766 193.5 66.3281 193.5 67.2969C193.5 68.2656 193.349 69.1146 193.047 69.8438C192.745 70.5729 192.326 71.1354 191.789 71.5312C191.253 71.9271 190.641 72.125 189.953 72.125C189.266 72.125 188.654 71.9271 188.117 71.5312C187.581 71.1354 187.161 70.5729 186.859 69.8438C186.557 69.1146 186.406 68.2656 186.406 67.2969C186.406 66.3281 186.557 65.4766 186.859 64.7422C187.161 64.0078 187.581 63.4427 188.117 63.0469C188.654 62.651 189.266 62.4531 189.953 62.4531ZM189.953 63.5469C189.495 63.5469 189.086 63.7031 188.727 64.0156C188.367 64.3281 188.089 64.7682 187.891 65.3359C187.693 65.9036 187.594 66.5573 187.594 67.2969C187.594 68.0417 187.693 68.6979 187.891 69.2656C188.089 69.8281 188.367 70.263 188.727 70.5703C189.086 70.8776 189.495 71.0312 189.953 71.0312C190.417 71.0312 190.826 70.8776 191.18 70.5703C191.539 70.263 191.818 69.8281 192.016 69.2656C192.214 68.6979 192.312 68.0417 192.312 67.2969C192.312 66.5521 192.214 65.8984 192.016 65.3359C191.818 64.7682 191.539 64.3281 191.18 64.0156C190.826 63.7031 190.417 63.5469 189.953 63.5469ZM206.656 64.7812H199.688V63.7812H206.656V64.7812ZM203.172 65.7188C203.75 65.7188 204.266 65.8542 204.719 66.125C205.177 66.3958 205.534 66.7708 205.789 67.25C206.049 67.724 206.182 68.2656 206.188 68.875C206.182 69.4896 206.049 70.0365 205.789 70.5156C205.534 70.9948 205.177 71.3724 204.719 71.6484C204.266 71.9245 203.75 72.0625 203.172 72.0625C202.604 72.0625 202.091 71.9245 201.633 71.6484C201.18 71.3724 200.826 70.9948 200.57 70.5156C200.315 70.0365 200.188 69.4896 200.188 68.875C200.188 68.2708 200.318 67.7292 200.578 67.25C200.839 66.7708 201.193 66.3958 201.641 66.125C202.094 65.8542 202.604 65.7188 203.172 65.7188ZM203.172 66.75C202.807 66.7552 202.482 66.8516 202.195 67.0391C201.909 67.2214 201.685 67.474 201.523 67.7969C201.362 68.1146 201.281 68.474 201.281 68.875C201.281 69.2812 201.362 69.6432 201.523 69.9609C201.685 70.2786 201.909 70.5286 202.195 70.7109C202.482 70.8932 202.807 70.9844 203.172 70.9844C203.536 70.9844 203.865 70.8932 204.156 70.7109C204.448 70.5286 204.677 70.2786 204.844 69.9609C205.01 69.6432 205.094 69.2812 205.094 68.875C205.094 68.474 205.01 68.1146 204.844 67.7969C204.677 67.474 204.448 67.2214 204.156 67.0391C203.865 66.8516 203.536 66.7552 203.172 66.75ZM211.547 75.2656H210.375V61.375H211.547V75.2656ZM210.766 68.25H208.109V67.2344H210.766V68.25ZM208.531 74.5781H207.375V61.7188H208.531V74.5781ZM203.797 64.3906H202.578V61.7969H203.797V64.3906Z" fill="black"/>
<rect x="89" y="294" width="161" height="45" rx="22.5" fill="#9E0000" fill-opacity="0.1"/>
<path d="M115.016 323.297H113.781V309.375H115.016V323.297ZM107.625 310.453C108.312 310.453 108.924 310.651 109.461 311.047C109.997 311.443 110.417 312.008 110.719 312.742C111.021 313.477 111.172 314.328 111.172 315.297C111.172 316.266 111.021 317.115 110.719 317.844C110.417 318.573 109.997 319.135 109.461 319.531C108.924 319.927 108.312 320.125 107.625 320.125C106.938 320.125 106.326 319.927 105.789 319.531C105.253 319.135 104.833 318.573 104.531 317.844C104.229 317.115 104.078 316.266 104.078 315.297C104.078 314.328 104.229 313.477 104.531 312.742C104.833 312.008 105.253 311.443 105.789 311.047C106.326 310.651 106.938 310.453 107.625 310.453ZM107.625 311.547C107.167 311.547 106.758 311.703 106.398 312.016C106.039 312.328 105.76 312.768 105.562 313.336C105.365 313.904 105.266 314.557 105.266 315.297C105.266 316.042 105.365 316.698 105.562 317.266C105.76 317.828 106.039 318.263 106.398 318.57C106.758 318.878 107.167 319.031 107.625 319.031C108.089 319.031 108.497 318.878 108.852 318.57C109.211 318.263 109.49 317.828 109.688 317.266C109.885 316.698 109.984 316.042 109.984 315.297C109.984 314.552 109.885 313.898 109.688 313.336C109.49 312.768 109.211 312.328 108.852 312.016C108.497 311.703 108.089 311.547 107.625 311.547ZM130.094 318.328H117.375V317.312H130.094V318.328ZM128.75 323.125H119.062V322.109H128.75V323.125ZM120.297 322.406H119.062V319.266H120.297V322.406ZM124.328 317.766H123.125V315.312H124.328V317.766ZM128.453 313.266H120.25V315.156H119.031V312.359H127.219V310.812H118.984V309.828H128.453V313.266ZM128.75 315.781H119.031V314.812H128.75V315.781ZM135.828 311.953C135.828 312.776 135.664 313.555 135.336 314.289C135.008 315.023 134.547 315.667 133.953 316.219C133.365 316.771 132.688 317.188 131.922 317.469L131.281 316.5C131.958 316.255 132.565 315.901 133.102 315.438C133.638 314.969 134.057 314.432 134.359 313.828C134.661 313.224 134.812 312.599 134.812 311.953V310.797H135.828V311.953ZM136.047 311.938C136.047 312.531 136.19 313.109 136.477 313.672C136.763 314.234 137.167 314.734 137.688 315.172C138.208 315.609 138.802 315.943 139.469 316.172L138.828 317.141C138.083 316.87 137.424 316.474 136.852 315.953C136.284 315.432 135.841 314.826 135.523 314.133C135.206 313.435 135.047 312.703 135.047 311.938V310.797H136.047V311.938ZM141.859 314.047H138.719V313.016H141.859V314.047ZM139.156 311.344H131.672V310.344H139.156V311.344ZM142.734 323.266H141.5V319.453H133.391V318.438H142.734V323.266ZM142.734 317.703H141.5V309.375H142.734V317.703ZM160.547 323.266H159.312V309.375H160.547V323.266ZM156.438 310.891C156.432 312.266 156.203 313.552 155.75 314.75C155.302 315.948 154.594 317.052 153.625 318.062C152.656 319.068 151.417 319.932 149.906 320.656L149.234 319.656C150.573 319.021 151.685 318.271 152.57 317.406C153.461 316.542 154.122 315.583 154.555 314.531C154.992 313.474 155.214 312.323 155.219 311.078V310.891H156.438ZM155.719 311.891H149.875V310.891H155.719V311.891ZM173.75 319.594H172.531V309.391H173.75V319.594ZM175.844 314.625H173.359V313.594H175.844V314.625ZM174.391 322.969H165.062V321.938H174.391V322.969ZM166.266 322.172H165.062V318.594H166.266V322.172ZM164.688 312.734H168.734V310.391H169.953V317.25H163.484V310.391H164.688V312.734ZM168.734 316.25V313.703H164.688V316.25H168.734ZM192.188 316.578H190.984V309.375H192.188V316.578ZM192.203 320.609H184.406V322.547H183.203V319.656H190.984V318.266H183.172V317.281H192.203V320.609ZM192.703 323.109H183.203V322.109H192.703V323.109ZM185.438 310.844C185.432 311.693 185.26 312.492 184.922 313.242C184.589 313.987 184.122 314.638 183.523 315.195C182.924 315.747 182.24 316.161 181.469 316.438L180.828 315.469C181.521 315.229 182.138 314.875 182.68 314.406C183.227 313.938 183.651 313.396 183.953 312.781C184.255 312.161 184.406 311.516 184.406 310.844V309.781H185.438V310.844ZM185.656 310.844C185.651 311.484 185.799 312.099 186.102 312.688C186.409 313.271 186.831 313.784 187.367 314.227C187.904 314.664 188.516 314.995 189.203 315.219L188.594 316.172C187.818 315.911 187.128 315.518 186.523 314.992C185.924 314.466 185.458 313.849 185.125 313.141C184.792 312.427 184.625 311.661 184.625 310.844V309.781H185.656V310.844ZM206.078 317.797H204.844V309.375H206.078V317.797ZM205.391 314.625H202.484V313.609H205.391V314.625ZM206.078 323.078H197V318.547H206.078V323.078ZM198.219 322.078H204.875V319.531H198.219V322.078ZM202.688 311.844H194.578V310.844H202.688V311.844ZM198.625 312.562C199.25 312.562 199.807 312.667 200.297 312.875C200.786 313.083 201.167 313.375 201.438 313.75C201.714 314.125 201.854 314.552 201.859 315.031C201.854 315.526 201.714 315.961 201.438 316.336C201.167 316.706 200.786 316.995 200.297 317.203C199.807 317.411 199.25 317.516 198.625 317.516C198 317.516 197.445 317.411 196.961 317.203C196.477 316.995 196.096 316.706 195.82 316.336C195.544 315.961 195.406 315.526 195.406 315.031C195.406 314.552 195.544 314.125 195.82 313.75C196.096 313.375 196.477 313.083 196.961 312.875C197.451 312.667 198.005 312.562 198.625 312.562ZM198.625 313.516C198.224 313.516 197.867 313.578 197.555 313.703C197.247 313.828 197.008 314.008 196.836 314.242C196.664 314.477 196.578 314.74 196.578 315.031C196.578 315.333 196.664 315.599 196.836 315.828C197.008 316.057 197.247 316.24 197.555 316.375C197.867 316.505 198.224 316.573 198.625 316.578C199.026 316.573 199.38 316.505 199.688 316.375C200 316.24 200.242 316.057 200.414 315.828C200.586 315.599 200.672 315.333 200.672 315.031C200.672 314.74 200.586 314.477 200.414 314.242C200.242 314.008 200 313.828 199.688 313.703C199.38 313.578 199.026 313.516 198.625 313.516ZM199.234 311.562H198.031V309.25H199.234V311.562ZM219.047 314.016H215.875V313H219.047V314.016ZM219.906 317.656H218.672V309.375H219.906V317.656ZM215.297 318.094C216.255 318.094 217.083 318.195 217.781 318.398C218.479 318.602 219.016 318.896 219.391 319.281C219.766 319.667 219.953 320.13 219.953 320.672C219.953 321.214 219.766 321.677 219.391 322.062C219.016 322.448 218.479 322.742 217.781 322.945C217.083 323.154 216.255 323.26 215.297 323.266C214.333 323.26 213.503 323.154 212.805 322.945C212.112 322.742 211.578 322.448 211.203 322.062C210.828 321.677 210.641 321.214 210.641 320.672C210.641 320.13 210.828 319.667 211.203 319.281C211.578 318.896 212.115 318.602 212.812 318.398C213.51 318.195 214.339 318.094 215.297 318.094ZM215.297 319.047C214.589 319.047 213.977 319.112 213.461 319.242C212.945 319.372 212.549 319.56 212.273 319.805C211.997 320.049 211.859 320.339 211.859 320.672C211.859 321.005 211.997 321.292 212.273 321.531C212.549 321.771 212.945 321.956 213.461 322.086C213.977 322.216 214.589 322.281 215.297 322.281C216 322.281 216.609 322.216 217.125 322.086C217.646 321.956 218.044 321.771 218.32 321.531C218.596 321.292 218.734 321.005 218.734 320.672C218.734 320.339 218.596 320.049 218.32 319.805C218.044 319.56 217.646 319.372 217.125 319.242C216.609 319.112 216 319.047 215.297 319.047ZM213 311.938C213 312.771 212.836 313.56 212.508 314.305C212.18 315.049 211.719 315.701 211.125 316.258C210.536 316.815 209.859 317.24 209.094 317.531L208.453 316.547C209.135 316.302 209.742 315.943 210.273 315.469C210.81 314.99 211.229 314.445 211.531 313.836C211.833 313.221 211.984 312.589 211.984 311.938V310.781H213V311.938ZM213.219 311.922C213.219 312.521 213.362 313.102 213.648 313.664C213.935 314.221 214.339 314.719 214.859 315.156C215.38 315.594 215.974 315.927 216.641 316.156L216 317.141C215.255 316.87 214.596 316.471 214.023 315.945C213.456 315.419 213.013 314.81 212.695 314.117C212.378 313.419 212.219 312.688 212.219 311.922V310.781H213.219V311.922ZM216.328 311.422H208.844V310.391H216.328V311.422ZM233.688 319.578H232.469V309.391H233.688V319.578ZM234.125 322.969H224.719V321.938H234.125V322.969ZM225.938 322.438H224.719V318.641H225.938V322.438ZM226.922 311.562C226.917 312.458 226.75 313.307 226.422 314.109C226.099 314.911 225.643 315.612 225.055 316.211C224.471 316.805 223.797 317.255 223.031 317.562L222.359 316.609C223.052 316.339 223.664 315.945 224.195 315.43C224.732 314.914 225.148 314.323 225.445 313.656C225.742 312.984 225.891 312.286 225.891 311.562V310.172H226.922V311.562ZM227.141 311.562C227.135 312.255 227.279 312.922 227.57 313.562C227.867 314.198 228.281 314.755 228.812 315.234C229.344 315.714 229.953 316.078 230.641 316.328L230 317.312C229.229 317.016 228.552 316.586 227.969 316.023C227.385 315.456 226.93 314.789 226.602 314.023C226.273 313.258 226.109 312.438 226.109 311.562V310.172H227.141V311.562Z" fill="black"/>
<rect x="421" y="46" width="70" height="45" rx="22.5" fill="white"/>
<path d="M446.312 65.6406H443.438V64.625H446.312V65.6406ZM446.297 68.3594H443.422V67.3438H446.297V68.3594ZM443.438 63.7969H435.578V62.7812H443.438V63.7969ZM439.547 64.4688C440.161 64.4688 440.708 64.5729 441.188 64.7812C441.667 64.9896 442.042 65.2839 442.312 65.6641C442.583 66.0443 442.719 66.4844 442.719 66.9844C442.719 67.4792 442.583 67.9141 442.312 68.2891C442.042 68.6589 441.667 68.9479 441.188 69.1562C440.708 69.3646 440.161 69.4688 439.547 69.4688C438.927 69.4688 438.378 69.3646 437.898 69.1562C437.424 68.9479 437.055 68.6589 436.789 68.2891C436.529 67.9141 436.401 67.4792 436.406 66.9844C436.401 66.4844 436.529 66.0443 436.789 65.6641C437.055 65.2839 437.424 64.9896 437.898 64.7812C438.378 64.5729 438.927 64.4688 439.547 64.4688ZM439.547 65.4219C439.146 65.4219 438.794 65.487 438.492 65.6172C438.195 65.7474 437.964 65.9323 437.797 66.1719C437.63 66.4062 437.547 66.6771 437.547 66.9844C437.547 67.2917 437.63 67.5625 437.797 67.7969C437.964 68.026 438.195 68.2083 438.492 68.3438C438.794 68.4792 439.146 68.5469 439.547 68.5469C439.943 68.5469 440.294 68.4792 440.602 68.3438C440.909 68.2083 441.146 68.026 441.312 67.7969C441.484 67.5625 441.573 67.2917 441.578 66.9844C441.573 66.6771 441.484 66.4062 441.312 66.1719C441.146 65.9323 440.909 65.7474 440.602 65.6172C440.294 65.487 439.943 65.4219 439.547 65.4219ZM440.172 63.3906H438.953V61.25H440.172V63.3906ZM447.078 69.5938H445.844V61.375H447.078V69.5938ZM439.25 71.6406H445.859V70.1719H447.078V75.0781H438.031V70.1719H439.25V71.6406ZM445.859 74.0938V72.5938H439.25V74.0938H445.859ZM462.062 69.2344H449.391V68.25H462.062V69.2344ZM456.312 68.6719H455.125V66.0156H456.312V68.6719ZM460.578 66.625H451V65.625H460.578V66.625ZM460.484 63.0156H452.203V66.2344H451V62.0312H460.484V63.0156ZM455.719 70.25C456.708 70.25 457.56 70.349 458.273 70.5469C458.987 70.7448 459.534 71.0312 459.914 71.4062C460.299 71.776 460.495 72.224 460.5 72.75C460.495 73.2812 460.302 73.7318 459.922 74.1016C459.547 74.4714 459 74.7552 458.281 74.9531C457.562 75.1562 456.708 75.2604 455.719 75.2656C454.719 75.2604 453.859 75.1562 453.141 74.9531C452.422 74.7552 451.872 74.4688 451.492 74.0938C451.112 73.724 450.922 73.276 450.922 72.75C450.922 72.224 451.112 71.776 451.492 71.4062C451.872 71.0312 452.422 70.7448 453.141 70.5469C453.859 70.349 454.719 70.25 455.719 70.25ZM455.719 71.2188C454.979 71.2188 454.344 71.2786 453.812 71.3984C453.281 71.5182 452.872 71.6953 452.586 71.9297C452.305 72.1589 452.167 72.4323 452.172 72.75C452.167 73.0729 452.305 73.349 452.586 73.5781C452.872 73.8073 453.281 73.9818 453.812 74.1016C454.344 74.2214 454.979 74.2812 455.719 74.2812C456.448 74.2812 457.078 74.2214 457.609 74.1016C458.141 73.9818 458.549 73.8073 458.836 73.5781C459.122 73.349 459.266 73.0729 459.266 72.75C459.266 72.4323 459.122 72.1589 458.836 71.9297C458.549 71.6953 458.141 71.5182 457.609 71.3984C457.078 71.2786 456.448 71.2188 455.719 71.2188ZM474.688 69.2812H473.469V61.3906H474.688V69.2812ZM474.688 75.0781H465.656V70.0781H474.688V75.0781ZM466.859 74.0781H473.484V71.0781H466.859V74.0781ZM467.922 63.2969C467.917 64.1406 467.747 64.9375 467.414 65.6875C467.086 66.4375 466.62 67.0938 466.016 67.6562C465.417 68.2135 464.729 68.6354 463.953 68.9219L463.328 67.9531C464.021 67.7083 464.638 67.3516 465.18 66.8828C465.727 66.4089 466.148 65.862 466.445 65.2422C466.742 64.6172 466.891 63.9688 466.891 63.2969V61.9375H467.922V63.2969ZM468.141 63.2969C468.135 63.9375 468.284 64.5521 468.586 65.1406C468.893 65.724 469.312 66.2396 469.844 66.6875C470.38 67.1302 470.99 67.474 471.672 67.7188L471.047 68.6562C470.276 68.3906 469.594 67.9948 469 67.4688C468.406 66.9375 467.943 66.3151 467.609 65.6016C467.276 64.888 467.109 64.1198 467.109 63.2969V61.9375H468.141V63.2969Z" fill="black"/>
<rect x="257" y="119" width="115" height="45" rx="22.5" fill="#9E1F15"/>
<path d="M273.469 144.031H272.25V135.891H273.469V144.031ZM273.125 143.672C274.036 143.672 274.878 143.641 275.648 143.578C276.424 143.516 277.229 143.396 278.062 143.219L278.234 144.281C277.38 144.464 276.557 144.586 275.766 144.648C274.974 144.711 274.094 144.745 273.125 144.75H272.25V143.672H273.125ZM283.453 148.266H282.281V134.375H283.453V148.266ZM279.656 140.078H276.141V139.062H279.656V140.078ZM280.484 147.562H279.312V134.719H280.484V147.562ZM296.641 142.891H287.031V141.891H296.641V142.891ZM298.109 146.453H285.391V145.438H298.109V146.453ZM296.484 136.609H288.281V142.188H287.031V135.578H296.484V136.609ZM296.188 139.656H287.891V138.672H296.188V139.656ZM304.281 147.844H303.047V142.109H304.281V147.844ZM310.719 148.281H309.469V134.391H310.719V148.281ZM299.156 141.703C301.078 141.698 302.76 141.669 304.203 141.617C305.651 141.565 307.047 141.443 308.391 141.25L308.469 142.172C307.078 142.406 305.648 142.56 304.18 142.633C302.711 142.706 301.094 142.745 299.328 142.75L299.156 141.703ZM309.797 144.828H306.266V143.891H309.797V144.828ZM303.734 135.078C304.417 135.078 305.023 135.193 305.555 135.422C306.091 135.651 306.505 135.974 306.797 136.391C307.089 136.802 307.234 137.276 307.234 137.812C307.234 138.354 307.089 138.828 306.797 139.234C306.505 139.641 306.091 139.958 305.555 140.188C305.023 140.417 304.417 140.531 303.734 140.531C303.042 140.531 302.43 140.417 301.898 140.188C301.372 139.958 300.961 139.641 300.664 139.234C300.367 138.828 300.219 138.354 300.219 137.812C300.219 137.276 300.367 136.802 300.664 136.391C300.961 135.974 301.375 135.651 301.906 135.422C302.438 135.193 303.047 135.078 303.734 135.078ZM303.734 136.031C303.271 136.031 302.859 136.107 302.5 136.258C302.146 136.409 301.87 136.62 301.672 136.891C301.474 137.161 301.375 137.469 301.375 137.812C301.375 138.161 301.474 138.471 301.672 138.742C301.87 139.008 302.146 139.214 302.5 139.359C302.859 139.505 303.271 139.578 303.734 139.578C304.188 139.578 304.591 139.505 304.945 139.359C305.305 139.214 305.583 139.008 305.781 138.742C305.979 138.471 306.078 138.161 306.078 137.812C306.078 137.469 305.979 137.161 305.781 136.891C305.583 136.62 305.305 136.409 304.945 136.258C304.591 136.107 304.188 136.031 303.734 136.031ZM323.453 136.828H314.578V135.797H323.453V136.828ZM325.703 146.312H313.047V145.281H325.703V146.312ZM324.125 137.594C324.13 138.448 324.122 139.182 324.102 139.797C324.086 140.411 324.034 141.094 323.945 141.844C323.862 142.589 323.729 143.396 323.547 144.266L322.312 144.156C322.5 143.344 322.638 142.57 322.727 141.836C322.815 141.102 322.87 140.443 322.891 139.859C322.917 139.271 322.932 138.516 322.938 137.594V137.516V135.797H324.125V137.516V137.594ZM314.375 141.047L314.203 140.031L323.25 139.656V140.562L314.375 141.047ZM341.641 138.734H338.766V137.719H341.641V138.734ZM341.625 141.438H338.75V140.422H341.625V141.438ZM338.766 136.938H330.906V135.938H338.766V136.938ZM334.875 137.656C335.49 137.656 336.036 137.76 336.516 137.969C336.995 138.177 337.37 138.477 337.641 138.867C337.911 139.258 338.047 139.708 338.047 140.219C338.047 140.729 337.911 141.177 337.641 141.562C337.37 141.948 336.995 142.25 336.516 142.469C336.036 142.688 335.49 142.797 334.875 142.797C334.255 142.797 333.706 142.688 333.227 142.469C332.753 142.25 332.383 141.948 332.117 141.562C331.857 141.177 331.729 140.729 331.734 140.219C331.729 139.708 331.857 139.258 332.117 138.867C332.383 138.477 332.753 138.177 333.227 137.969C333.706 137.76 334.255 137.656 334.875 137.656ZM334.875 138.578C334.474 138.583 334.122 138.656 333.82 138.797C333.523 138.932 333.292 139.122 333.125 139.367C332.958 139.612 332.875 139.896 332.875 140.219C332.875 140.542 332.958 140.826 333.125 141.07C333.292 141.315 333.523 141.505 333.82 141.641C334.122 141.776 334.474 141.844 334.875 141.844C335.271 141.844 335.622 141.776 335.93 141.641C336.237 141.505 336.474 141.315 336.641 141.07C336.812 140.826 336.901 140.542 336.906 140.219C336.901 139.896 336.812 139.612 336.641 139.367C336.474 139.122 336.237 138.932 335.93 138.797C335.622 138.656 335.271 138.583 334.875 138.578ZM335.5 136.625H334.281V134.266H335.5V136.625ZM342.406 143.359H341.172V134.375H342.406V143.359ZM337.828 143.5C338.792 143.5 339.622 143.591 340.32 143.773C341.023 143.956 341.56 144.227 341.93 144.586C342.299 144.945 342.484 145.375 342.484 145.875C342.484 146.37 342.299 146.792 341.93 147.141C341.56 147.495 341.023 147.766 340.32 147.953C339.622 148.141 338.792 148.234 337.828 148.234C336.859 148.234 336.026 148.141 335.328 147.953C334.63 147.766 334.094 147.495 333.719 147.141C333.344 146.792 333.156 146.37 333.156 145.875C333.156 145.375 333.344 144.945 333.719 144.586C334.094 144.227 334.63 143.956 335.328 143.773C336.026 143.591 336.859 143.5 337.828 143.5ZM337.828 144.453C337.125 144.453 336.518 144.508 336.008 144.617C335.503 144.727 335.112 144.891 334.836 145.109C334.56 145.323 334.422 145.578 334.422 145.875C334.422 146.167 334.56 146.419 334.836 146.633C335.112 146.846 335.505 147.008 336.016 147.117C336.526 147.227 337.13 147.281 337.828 147.281C338.516 147.281 339.112 147.227 339.617 147.117C340.122 147.008 340.51 146.846 340.781 146.633C341.052 146.419 341.188 146.167 341.188 145.875C341.188 145.578 341.052 145.323 340.781 145.109C340.51 144.891 340.122 144.729 339.617 144.625C339.117 144.516 338.521 144.458 337.828 144.453ZM349.281 136.609C349.281 137.495 349.12 138.32 348.797 139.086C348.474 139.852 348.018 140.516 347.43 141.078C346.841 141.641 346.156 142.068 345.375 142.359L344.703 141.359C345.411 141.109 346.036 140.747 346.578 140.273C347.12 139.799 347.536 139.247 347.828 138.617C348.125 137.987 348.276 137.318 348.281 136.609V135.172H349.281V136.609ZM349.5 136.562C349.495 137.214 349.635 137.833 349.922 138.422C350.214 139.005 350.62 139.521 351.141 139.969C351.661 140.417 352.26 140.755 352.938 140.984L352.25 141.938C351.505 141.656 350.849 141.253 350.281 140.727C349.719 140.201 349.279 139.583 348.961 138.875C348.643 138.161 348.484 137.391 348.484 136.562V135.172H349.5V136.562ZM356.234 142.609H355V134.375H356.234V142.609ZM351.625 143.016C352.583 143.016 353.411 143.117 354.109 143.32C354.807 143.523 355.344 143.823 355.719 144.219C356.094 144.615 356.281 145.089 356.281 145.641C356.281 146.188 356.094 146.654 355.719 147.039C355.344 147.43 354.807 147.727 354.109 147.93C353.411 148.133 352.583 148.234 351.625 148.234C350.661 148.234 349.831 148.133 349.133 147.93C348.44 147.727 347.906 147.43 347.531 147.039C347.156 146.654 346.969 146.188 346.969 145.641C346.969 145.089 347.156 144.615 347.531 144.219C347.906 143.823 348.44 143.523 349.133 143.32C349.831 143.117 350.661 143.016 351.625 143.016ZM351.625 143.984C350.917 143.984 350.305 144.049 349.789 144.18C349.273 144.31 348.878 144.5 348.602 144.75C348.326 145 348.188 145.297 348.188 145.641C348.188 145.974 348.326 146.26 348.602 146.5C348.878 146.74 349.273 146.924 349.789 147.055C350.305 147.185 350.917 147.25 351.625 147.25C352.328 147.25 352.938 147.185 353.453 147.055C353.974 146.924 354.372 146.74 354.648 146.5C354.924 146.26 355.062 145.974 355.062 145.641C355.062 145.297 354.924 145 354.648 144.75C354.372 144.5 353.974 144.31 353.453 144.18C352.938 144.049 352.328 143.984 351.625 143.984ZM355.266 138.375H351.906V137.359H355.266V138.375Z" fill="white"/>
<rect x="250" y="179" width="129" height="45" rx="22.5" fill="#9E1F15"/>
<path d="M276.016 208.297H274.781V194.375H276.016V208.297ZM266.594 199.234H270.734V195.562H271.938V204.938H265.375V195.562H266.594V199.234ZM270.734 203.906V200.219H266.594V203.906H270.734ZM286.328 196.703H278.828V195.703H286.328V196.703ZM278.438 201.516C280.052 201.505 281.573 201.474 283 201.422C284.432 201.365 285.76 201.26 286.984 201.109L287.078 202.031C285.807 202.229 284.445 202.365 282.992 202.438C281.539 202.505 280.068 202.536 278.578 202.531L278.438 201.516ZM281.438 201.734H280.234V196.438H281.438V201.734ZM284.906 201.734H283.703V196.438H284.906V201.734ZM289.25 204.609H288.031V194.391H289.25V204.609ZM291.344 199.656H288.859V198.609H291.344V199.656ZM289.891 207.969H280.562V206.938H289.891V207.969ZM281.766 207.234H280.562V203.641H281.766V207.234ZM296.828 196.953C296.828 197.776 296.664 198.555 296.336 199.289C296.008 200.023 295.547 200.667 294.953 201.219C294.365 201.771 293.688 202.188 292.922 202.469L292.281 201.5C292.958 201.255 293.565 200.901 294.102 200.438C294.638 199.969 295.057 199.432 295.359 198.828C295.661 198.224 295.812 197.599 295.812 196.953V195.797H296.828V196.953ZM297.047 196.938C297.047 197.531 297.19 198.109 297.477 198.672C297.763 199.234 298.167 199.734 298.688 200.172C299.208 200.609 299.802 200.943 300.469 201.172L299.828 202.141C299.083 201.87 298.424 201.474 297.852 200.953C297.284 200.432 296.841 199.826 296.523 199.133C296.206 198.435 296.047 197.703 296.047 196.938V195.797H297.047V196.938ZM302.859 199.047H299.719V198.016H302.859V199.047ZM300.156 196.344H292.672V195.344H300.156V196.344ZM303.734 208.266H302.5V204.453H294.391V203.438H303.734V208.266ZM303.734 202.703H302.5V194.375H303.734V202.703ZM314.516 198.109C314.516 199.109 314.346 200.086 314.008 201.039C313.669 201.992 313.203 202.844 312.609 203.594C312.021 204.339 311.365 204.906 310.641 205.297L309.859 204.312C310.531 203.984 311.143 203.492 311.695 202.836C312.253 202.174 312.693 201.43 313.016 200.602C313.344 199.773 313.51 198.943 313.516 198.109V195.578H314.516V198.109ZM314.719 198.109C314.719 198.906 314.88 199.703 315.203 200.5C315.526 201.292 315.961 202 316.508 202.625C317.055 203.25 317.656 203.724 318.312 204.047L317.562 205.031C316.844 204.656 316.193 204.109 315.609 203.391C315.026 202.672 314.565 201.854 314.227 200.938C313.893 200.016 313.729 199.073 313.734 198.109V195.578H314.719V198.109ZM320.812 208.266H319.594V194.375H320.812V208.266ZM323.141 201.078H320.531V200.016H323.141V201.078ZM334.266 196.797H325.234V195.781H334.266V196.797ZM336.547 206.297H323.891V205.281H336.547V206.297ZM330.062 205.812H328.859V200.312H330.062V205.812ZM335.031 197.344C335.021 198.495 334.984 199.523 334.922 200.43C334.865 201.336 334.729 202.385 334.516 203.578L333.266 203.438C333.427 202.635 333.544 201.875 333.617 201.156C333.695 200.438 333.742 199.812 333.758 199.281C333.779 198.745 333.792 198.073 333.797 197.266V197.172V195.781H335.031V197.172V197.344ZM348.938 199.281H339.453V198.266H348.938V199.281ZM340.672 198.719H339.453V194.656H340.672V198.719ZM350.391 201.922H337.719V200.906H350.391V201.922ZM344.047 203.172C345.036 203.172 345.888 203.268 346.602 203.461C347.315 203.654 347.862 203.94 348.242 204.32C348.628 204.695 348.823 205.151 348.828 205.688C348.823 206.219 348.628 206.672 348.242 207.047C347.862 207.422 347.315 207.708 346.602 207.906C345.888 208.104 345.036 208.203 344.047 208.203C343.047 208.203 342.188 208.104 341.469 207.906C340.75 207.708 340.201 207.422 339.82 207.047C339.44 206.672 339.25 206.219 339.25 205.688C339.25 205.151 339.44 204.695 339.82 204.32C340.201 203.94 340.75 203.654 341.469 203.461C342.188 203.268 343.047 203.172 344.047 203.172ZM344.047 204.141C343.307 204.141 342.672 204.201 342.141 204.32C341.609 204.44 341.201 204.617 340.914 204.852C340.633 205.086 340.495 205.365 340.5 205.688C340.495 206.01 340.633 206.286 340.914 206.516C341.201 206.745 341.609 206.924 342.141 207.055C342.672 207.185 343.307 207.25 344.047 207.25C344.776 207.25 345.406 207.185 345.938 207.055C346.469 206.924 346.878 206.745 347.164 206.516C347.451 206.286 347.594 206.01 347.594 205.688C347.594 205.365 347.453 205.086 347.172 204.852C346.891 204.617 346.482 204.44 345.945 204.32C345.414 204.201 344.781 204.141 344.047 204.141ZM353.125 201.281C354.589 201.286 355.724 201.268 356.531 201.227C357.344 201.18 358.151 201.083 358.953 200.938L359.078 201.953C358.25 202.089 357.422 202.177 356.594 202.219C355.771 202.26 354.615 202.281 353.125 202.281H352.141V201.281H353.125ZM358.141 199.125H353.359V201.875H352.141V198.188H356.922V196.219H352.109V195.234H358.141V199.125ZM363.062 202.922H361.828V194.391H363.062V202.922ZM362.125 197.453H359.062V196.453H362.125V197.453ZM362.125 200.344H359.062V199.328H362.125V200.344ZM363.062 208.297H361.828V204.672H353.703V203.672H363.062V208.297Z" fill="white"/>
<rect x="259" y="239" width="111" height="45" rx="22.5" fill="#9E1F15"/>
<path d="M286.266 262.5H273.547V261.484H286.266V262.5ZM280.609 265.344H279.391V262.109H280.609V265.344ZM284.609 259.891H275.203V255.062H284.609V259.891ZM276.406 258.906H283.391V256.031H276.406V258.906ZM284.844 267.969H275.172V266.938H284.844V267.969ZM276.406 267.297H275.172V263.969H276.406V267.297ZM299.266 268.266H298.094V254.375H299.266V268.266ZM295.672 260.391H292.953V259.391H295.672V260.391ZM296.453 267.547H295.297V254.719H296.453V267.547ZM291.25 258.344C291.245 259.344 291.109 260.31 290.844 261.242C290.583 262.174 290.208 263.013 289.719 263.758C289.234 264.497 288.661 265.073 288 265.484L287.219 264.562C287.849 264.188 288.396 263.672 288.859 263.016C289.328 262.359 289.682 261.628 289.922 260.82C290.167 260.013 290.286 259.188 290.281 258.344V256.531H291.25V258.344ZM291.469 258.344C291.469 259.151 291.589 259.938 291.828 260.703C292.068 261.464 292.411 262.156 292.859 262.781C293.307 263.401 293.844 263.891 294.469 264.25L293.719 265.156C293.052 264.755 292.482 264.206 292.008 263.508C291.534 262.805 291.169 262.01 290.914 261.125C290.664 260.234 290.542 259.307 290.547 258.344V256.531H291.469V258.344ZM294.016 257.031H287.609V256.016H294.016V257.031ZM308.156 257.781H301.188V256.781H308.156V257.781ZM304.672 258.719C305.25 258.719 305.766 258.854 306.219 259.125C306.677 259.396 307.034 259.771 307.289 260.25C307.549 260.724 307.682 261.266 307.688 261.875C307.682 262.49 307.549 263.036 307.289 263.516C307.034 263.995 306.677 264.372 306.219 264.648C305.766 264.924 305.25 265.062 304.672 265.062C304.104 265.062 303.591 264.924 303.133 264.648C302.68 264.372 302.326 263.995 302.07 263.516C301.815 263.036 301.688 262.49 301.688 261.875C301.688 261.271 301.818 260.729 302.078 260.25C302.339 259.771 302.693 259.396 303.141 259.125C303.594 258.854 304.104 258.719 304.672 258.719ZM304.672 259.75C304.307 259.755 303.982 259.852 303.695 260.039C303.409 260.221 303.185 260.474 303.023 260.797C302.862 261.115 302.781 261.474 302.781 261.875C302.781 262.281 302.862 262.643 303.023 262.961C303.185 263.279 303.409 263.529 303.695 263.711C303.982 263.893 304.307 263.984 304.672 263.984C305.036 263.984 305.365 263.893 305.656 263.711C305.948 263.529 306.177 263.279 306.344 262.961C306.51 262.643 306.594 262.281 306.594 261.875C306.594 261.474 306.51 261.115 306.344 260.797C306.177 260.474 305.948 260.221 305.656 260.039C305.365 259.852 305.036 259.755 304.672 259.75ZM313.047 268.266H311.875V254.375H313.047V268.266ZM312.266 261.25H309.609V260.234H312.266V261.25ZM310.031 267.578H308.875V254.719H310.031V267.578ZM305.297 257.391H304.078V254.797H305.297V257.391ZM326.562 261.484H325.328V254.375H326.562V261.484ZM322.25 255.078C322.25 256.219 321.992 257.237 321.477 258.133C320.961 259.023 320.214 259.776 319.234 260.391C318.26 261 317.089 261.469 315.719 261.797L315.281 260.781C316.484 260.5 317.505 260.115 318.344 259.625C319.188 259.135 319.828 258.557 320.266 257.891C320.703 257.219 320.922 256.474 320.922 255.656V255.078H322.25ZM321.469 256.094H315.984V255.078H321.469V256.094ZM325.531 257.391H321.75V256.406H325.531V257.391ZM325.453 260.031H321.625V259.062H325.453V260.031ZM326.562 265.5H318.812V267.75H317.594V264.562H325.328V263.109H317.562V262.109H326.562V265.5ZM327.031 268.141H317.594V267.125H327.031V268.141ZM340.094 259.281H330.609V258.266H340.094V259.281ZM331.828 258.719H330.609V254.656H331.828V258.719ZM341.547 261.922H328.875V260.906H341.547V261.922ZM335.203 263.172C336.193 263.172 337.044 263.268 337.758 263.461C338.471 263.654 339.018 263.94 339.398 264.32C339.784 264.695 339.979 265.151 339.984 265.688C339.979 266.219 339.784 266.672 339.398 267.047C339.018 267.422 338.471 267.708 337.758 267.906C337.044 268.104 336.193 268.203 335.203 268.203C334.203 268.203 333.344 268.104 332.625 267.906C331.906 267.708 331.357 267.422 330.977 267.047C330.596 266.672 330.406 266.219 330.406 265.688C330.406 265.151 330.596 264.695 330.977 264.32C331.357 263.94 331.906 263.654 332.625 263.461C333.344 263.268 334.203 263.172 335.203 263.172ZM335.203 264.141C334.464 264.141 333.828 264.201 333.297 264.32C332.766 264.44 332.357 264.617 332.07 264.852C331.789 265.086 331.651 265.365 331.656 265.688C331.651 266.01 331.789 266.286 332.07 266.516C332.357 266.745 332.766 266.924 333.297 267.055C333.828 267.185 334.464 267.25 335.203 267.25C335.932 267.25 336.562 267.185 337.094 267.055C337.625 266.924 338.034 266.745 338.32 266.516C338.607 266.286 338.75 266.01 338.75 265.688C338.75 265.365 338.609 265.086 338.328 264.852C338.047 264.617 337.638 264.44 337.102 264.32C336.57 264.201 335.938 264.141 335.203 264.141ZM344.281 261.281C345.745 261.286 346.88 261.268 347.688 261.227C348.5 261.18 349.307 261.083 350.109 260.938L350.234 261.953C349.406 262.089 348.578 262.177 347.75 262.219C346.927 262.26 345.771 262.281 344.281 262.281H343.297V261.281H344.281ZM349.297 259.125H344.516V261.875H343.297V258.188H348.078V256.219H343.266V255.234H349.297V259.125ZM354.219 262.922H352.984V254.391H354.219V262.922ZM353.281 257.453H350.219V256.453H353.281V257.453ZM353.281 260.344H350.219V259.328H353.281V260.344ZM354.219 268.297H352.984V264.672H344.859V263.672H354.219V268.297Z" fill="white"/>
<rect x="537" y="176" width="88" height="45" rx="22.5" fill="white"/>
<path d="M564.281 203.453H551.562V202.438H564.281V203.453ZM558.453 202.781H557.25V199.031H558.453V202.781ZM558.281 193.391C558.281 194.339 558.008 195.219 557.461 196.031C556.914 196.844 556.206 197.523 555.336 198.07C554.466 198.617 553.557 198.99 552.609 199.188L552.062 198.172C552.885 198.031 553.695 197.727 554.492 197.258C555.289 196.784 555.94 196.208 556.445 195.531C556.951 194.849 557.203 194.135 557.203 193.391V192.328H558.281V193.391ZM558.484 193.391C558.484 194.13 558.742 194.841 559.258 195.523C559.773 196.206 560.43 196.784 561.227 197.258C562.029 197.727 562.839 198.031 563.656 198.172L563.109 199.188C562.161 198.99 561.253 198.617 560.383 198.07C559.513 197.523 558.802 196.844 558.25 196.031C557.703 195.219 557.432 194.339 557.438 193.391V192.328H558.484V193.391ZM578.047 199.75H565.375V198.75H578.047V199.75ZM572.312 199.172H571.094V196.922H572.312V199.172ZM576.547 197.375H567.062V196.391H576.547V197.375ZM576.469 192.781H568.297V196.906H567.062V191.781H576.469V192.781ZM576.094 195.016H567.922V194.078H576.094V195.016ZM571.719 200.797C572.729 200.792 573.591 200.875 574.305 201.047C575.018 201.214 575.56 201.464 575.93 201.797C576.305 202.13 576.495 202.536 576.5 203.016C576.495 203.5 576.305 203.906 575.93 204.234C575.56 204.568 575.018 204.818 574.305 204.984C573.596 205.151 572.734 205.234 571.719 205.234C570.693 205.234 569.82 205.151 569.102 204.984C568.388 204.818 567.846 204.568 567.477 204.234C567.107 203.906 566.922 203.5 566.922 203.016C566.922 202.536 567.107 202.13 567.477 201.797C567.846 201.464 568.391 201.214 569.109 201.047C569.828 200.875 570.698 200.792 571.719 200.797ZM571.719 201.719C570.953 201.719 570.302 201.768 569.766 201.867C569.234 201.966 568.831 202.115 568.555 202.312C568.284 202.505 568.151 202.74 568.156 203.016C568.151 203.297 568.284 203.531 568.555 203.719C568.831 203.906 569.234 204.047 569.766 204.141C570.302 204.24 570.953 204.286 571.719 204.281C572.474 204.286 573.115 204.24 573.641 204.141C574.172 204.047 574.576 203.906 574.852 203.719C575.128 203.531 575.266 203.297 575.266 203.016C575.266 202.74 575.128 202.505 574.852 202.312C574.576 202.115 574.172 201.966 573.641 201.867C573.115 201.768 572.474 201.719 571.719 201.719ZM594.453 196.281H584.969V195.266H594.453V196.281ZM586.188 195.719H584.969V191.656H586.188V195.719ZM595.906 198.922H583.234V197.906H595.906V198.922ZM589.562 200.172C590.552 200.172 591.404 200.268 592.117 200.461C592.831 200.654 593.378 200.94 593.758 201.32C594.143 201.695 594.339 202.151 594.344 202.688C594.339 203.219 594.143 203.672 593.758 204.047C593.378 204.422 592.831 204.708 592.117 204.906C591.404 205.104 590.552 205.203 589.562 205.203C588.562 205.203 587.703 205.104 586.984 204.906C586.266 204.708 585.716 204.422 585.336 204.047C584.956 203.672 584.766 203.219 584.766 202.688C584.766 202.151 584.956 201.695 585.336 201.32C585.716 200.94 586.266 200.654 586.984 200.461C587.703 200.268 588.562 200.172 589.562 200.172ZM589.562 201.141C588.823 201.141 588.188 201.201 587.656 201.32C587.125 201.44 586.716 201.617 586.43 201.852C586.148 202.086 586.01 202.365 586.016 202.688C586.01 203.01 586.148 203.286 586.43 203.516C586.716 203.745 587.125 203.924 587.656 204.055C588.188 204.185 588.823 204.25 589.562 204.25C590.292 204.25 590.922 204.185 591.453 204.055C591.984 203.924 592.393 203.745 592.68 203.516C592.966 203.286 593.109 203.01 593.109 202.688C593.109 202.365 592.969 202.086 592.688 201.852C592.406 201.617 591.997 201.44 591.461 201.32C590.93 201.201 590.297 201.141 589.562 201.141ZM598.641 198.281C600.104 198.286 601.24 198.268 602.047 198.227C602.859 198.18 603.667 198.083 604.469 197.938L604.594 198.953C603.766 199.089 602.938 199.177 602.109 199.219C601.286 199.26 600.13 199.281 598.641 199.281H597.656V198.281H598.641ZM603.656 196.125H598.875V198.875H597.656V195.188H602.438V193.219H597.625V192.234H603.656V196.125ZM608.578 199.922H607.344V191.391H608.578V199.922ZM607.641 194.453H604.578V193.453H607.641V194.453ZM607.641 197.344H604.578V196.328H607.641V197.344ZM608.578 205.297H607.344V201.672H599.219V200.672H608.578V205.297Z" fill="black"/>
<rect x="378" y="294" width="179" height="45" rx="22.5" fill="white"/>
<path d="M403.312 323.297H402.094V309.375H403.312V323.297ZM405.641 315.906H403.031V314.875H405.641V315.906ZM394.266 318.781C395.63 318.776 396.799 318.74 397.773 318.672C398.747 318.599 399.74 318.469 400.75 318.281L400.906 319.344C399.875 319.531 398.865 319.656 397.875 319.719C396.891 319.781 395.688 319.812 394.266 319.812H393.172V318.781H394.266ZM399.656 311.75H394.391V319.25H393.172V310.734H399.656V311.75ZM419.312 312.5H416.891V311.484H419.312V312.5ZM419.312 315.469H416.891V314.438H419.312V315.469ZM410.297 310.219C410.995 310.219 411.622 310.354 412.18 310.625C412.737 310.896 413.169 311.281 413.477 311.781C413.789 312.281 413.948 312.849 413.953 313.484C413.948 314.12 413.789 314.685 413.477 315.18C413.169 315.674 412.737 316.06 412.18 316.336C411.622 316.612 410.995 316.75 410.297 316.75C409.604 316.75 408.979 316.609 408.422 316.328C407.87 316.047 407.438 315.661 407.125 315.172C406.812 314.677 406.656 314.115 406.656 313.484C406.656 312.849 406.812 312.281 407.125 311.781C407.438 311.281 407.87 310.896 408.422 310.625C408.979 310.354 409.604 310.219 410.297 310.219ZM410.297 311.266C409.833 311.26 409.414 311.352 409.039 311.539C408.669 311.721 408.38 311.984 408.172 312.328C407.964 312.672 407.859 313.057 407.859 313.484C407.859 313.917 407.964 314.302 408.172 314.641C408.38 314.974 408.669 315.237 409.039 315.43C409.414 315.617 409.833 315.714 410.297 315.719C410.766 315.714 411.188 315.617 411.562 315.43C411.938 315.237 412.229 314.974 412.438 314.641C412.646 314.302 412.75 313.917 412.75 313.484C412.75 313.057 412.646 312.672 412.438 312.328C412.229 311.984 411.938 311.721 411.562 311.539C411.188 311.352 410.766 311.26 410.297 311.266ZM417.25 317.625H416.031V309.375H417.25V317.625ZM412.797 318.047C413.74 318.047 414.555 318.151 415.242 318.359C415.935 318.568 416.464 318.867 416.828 319.258C417.193 319.648 417.375 320.115 417.375 320.656C417.375 321.193 417.193 321.651 416.828 322.031C416.464 322.417 415.935 322.714 415.242 322.922C414.555 323.13 413.74 323.234 412.797 323.234C411.854 323.234 411.036 323.13 410.344 322.922C409.656 322.714 409.125 322.417 408.75 322.031C408.375 321.651 408.188 321.193 408.188 320.656C408.188 320.115 408.375 319.648 408.75 319.258C409.125 318.867 409.656 318.568 410.344 318.359C411.036 318.151 411.854 318.047 412.797 318.047ZM412.797 319.047C412.104 319.047 411.503 319.109 410.992 319.234C410.487 319.359 410.096 319.544 409.82 319.789C409.549 320.034 409.417 320.323 409.422 320.656C409.417 320.984 409.549 321.268 409.82 321.508C410.096 321.742 410.487 321.924 410.992 322.055C411.497 322.185 412.099 322.25 412.797 322.25C413.495 322.25 414.099 322.185 414.609 322.055C415.12 321.924 415.51 321.742 415.781 321.508C416.052 321.268 416.188 320.984 416.188 320.656C416.188 320.323 416.052 320.034 415.781 319.789C415.51 319.544 415.12 319.359 414.609 319.234C414.099 319.109 413.495 319.047 412.797 319.047ZM431.078 319.797H429.859V309.391H431.078V319.797ZM433.172 315H430.688V313.969H433.172V315ZM428.531 312.094H420.25V311.094H428.531V312.094ZM424.391 312.859C425.047 312.859 425.628 312.966 426.133 313.18C426.638 313.393 427.029 313.695 427.305 314.086C427.586 314.477 427.729 314.932 427.734 315.453C427.729 315.969 427.586 316.422 427.305 316.812C427.029 317.198 426.638 317.495 426.133 317.703C425.628 317.911 425.047 318.016 424.391 318.016C423.724 318.016 423.138 317.911 422.633 317.703C422.128 317.495 421.737 317.198 421.461 316.812C421.185 316.422 421.047 315.969 421.047 315.453C421.047 314.932 421.185 314.477 421.461 314.086C421.737 313.695 422.128 313.393 422.633 313.18C423.138 312.966 423.724 312.859 424.391 312.859ZM424.391 313.828C423.958 313.828 423.576 313.893 423.242 314.023C422.914 314.154 422.661 314.344 422.484 314.594C422.307 314.839 422.219 315.125 422.219 315.453C422.219 315.776 422.307 316.057 422.484 316.297C422.661 316.536 422.914 316.724 423.242 316.859C423.576 316.99 423.958 317.052 424.391 317.047C424.818 317.052 425.198 316.99 425.531 316.859C425.865 316.724 426.12 316.536 426.297 316.297C426.479 316.057 426.573 315.776 426.578 315.453C426.573 315.125 426.479 314.839 426.297 314.594C426.12 314.344 425.865 314.154 425.531 314.023C425.198 313.893 424.818 313.828 424.391 313.828ZM425 311.609H423.781V309.391H425V311.609ZM431.719 322.969H422.391V321.938H431.719V322.969ZM423.594 322.359H422.391V318.969H423.594V322.359ZM450.766 317.734H438.047V316.734H450.766V317.734ZM445.109 320.453H443.891V317.219H445.109V320.453ZM449.344 322.969H439.672V321.938H449.344V322.969ZM440.891 322.328H439.672V319.172H440.891V322.328ZM440.969 311.609H447.844V309.828H449.062V315.375H439.75V309.828H440.969V311.609ZM447.844 314.375V312.547H440.969V314.375H447.844ZM455.609 310.453C456.286 310.453 456.891 310.651 457.422 311.047C457.953 311.443 458.367 312.008 458.664 312.742C458.966 313.477 459.12 314.328 459.125 315.297C459.12 316.266 458.966 317.115 458.664 317.844C458.367 318.573 457.953 319.135 457.422 319.531C456.891 319.927 456.286 320.125 455.609 320.125C454.927 320.125 454.32 319.927 453.789 319.531C453.263 319.135 452.852 318.576 452.555 317.852C452.258 317.122 452.109 316.271 452.109 315.297C452.109 314.328 452.258 313.477 452.555 312.742C452.852 312.008 453.263 311.443 453.789 311.047C454.32 310.651 454.927 310.453 455.609 310.453ZM455.609 311.547C455.156 311.547 454.753 311.703 454.398 312.016C454.049 312.328 453.773 312.768 453.57 313.336C453.367 313.898 453.266 314.552 453.266 315.297C453.266 316.042 453.367 316.698 453.57 317.266C453.773 317.828 454.049 318.263 454.398 318.57C454.753 318.878 455.156 319.031 455.609 319.031C456.068 319.031 456.474 318.878 456.828 318.57C457.182 318.263 457.456 317.828 457.648 317.266C457.841 316.698 457.938 316.042 457.938 315.297C457.938 314.552 457.841 313.898 457.648 313.336C457.456 312.768 457.182 312.328 456.828 312.016C456.474 311.703 456.068 311.547 455.609 311.547ZM464.891 313.922H462.312V312.875H464.891V313.922ZM464.891 318.047H462.312V317.016H464.891V318.047ZM462.641 323.266H461.422V309.375H462.641V323.266ZM474.078 315.812H471.406V314.797H474.078V315.812ZM477.625 323.266H476.438V309.375H477.625V323.266ZM474.828 322.562H473.656V309.672H474.828V322.562ZM468.875 310.547C469.474 310.547 469.997 310.745 470.445 311.141C470.898 311.536 471.25 312.099 471.5 312.828C471.75 313.552 471.875 314.401 471.875 315.375C471.875 316.349 471.75 317.201 471.5 317.93C471.25 318.654 470.898 319.214 470.445 319.609C469.997 320.005 469.474 320.203 468.875 320.203C468.276 320.203 467.753 320.005 467.305 319.609C466.862 319.214 466.516 318.654 466.266 317.93C466.016 317.201 465.891 316.349 465.891 315.375C465.891 314.401 466.016 313.552 466.266 312.828C466.516 312.099 466.862 311.536 467.305 311.141C467.753 310.745 468.276 310.547 468.875 310.547ZM468.875 311.703C468.5 311.703 468.174 311.852 467.898 312.148C467.622 312.445 467.409 312.872 467.258 313.43C467.112 313.982 467.042 314.63 467.047 315.375C467.042 316.12 467.112 316.768 467.258 317.32C467.409 317.867 467.622 318.292 467.898 318.594C468.18 318.891 468.505 319.036 468.875 319.031C469.25 319.036 469.578 318.891 469.859 318.594C470.141 318.292 470.354 317.867 470.5 317.32C470.646 316.768 470.719 316.12 470.719 315.375C470.719 314.63 470.646 313.982 470.5 313.43C470.354 312.872 470.141 312.445 469.859 312.148C469.578 311.852 469.25 311.703 468.875 311.703ZM495.438 323.266H494.266V309.375H495.438V323.266ZM494.578 315.984H491.859V314.969H494.578V315.984ZM492.219 322.547H491.094V309.688H492.219V322.547ZM484.969 318.781C486.099 318.781 487.039 318.755 487.789 318.703C488.544 318.651 489.307 318.547 490.078 318.391L490.188 319.422C489.406 319.583 488.635 319.69 487.875 319.742C487.115 319.794 486.146 319.823 484.969 319.828H484.078V318.781H484.969ZM489.281 312.094H485.297V319.266H484.078V311.078H489.281V312.094ZM508.25 319.797H507.031V309.391H508.25V319.797ZM510.344 315H507.859V313.969H510.344V315ZM505.703 312.094H497.422V311.094H505.703V312.094ZM501.562 312.859C502.219 312.859 502.799 312.966 503.305 313.18C503.81 313.393 504.201 313.695 504.477 314.086C504.758 314.477 504.901 314.932 504.906 315.453C504.901 315.969 504.758 316.422 504.477 316.812C504.201 317.198 503.81 317.495 503.305 317.703C502.799 317.911 502.219 318.016 501.562 318.016C500.896 318.016 500.31 317.911 499.805 317.703C499.299 317.495 498.909 317.198 498.633 316.812C498.357 316.422 498.219 315.969 498.219 315.453C498.219 314.932 498.357 314.477 498.633 314.086C498.909 313.695 499.299 313.393 499.805 313.18C500.31 312.966 500.896 312.859 501.562 312.859ZM501.562 313.828C501.13 313.828 500.747 313.893 500.414 314.023C500.086 314.154 499.833 314.344 499.656 314.594C499.479 314.839 499.391 315.125 499.391 315.453C499.391 315.776 499.479 316.057 499.656 316.297C499.833 316.536 500.086 316.724 500.414 316.859C500.747 316.99 501.13 317.052 501.562 317.047C501.99 317.052 502.37 316.99 502.703 316.859C503.036 316.724 503.292 316.536 503.469 316.297C503.651 316.057 503.745 315.776 503.75 315.453C503.745 315.125 503.651 314.839 503.469 314.594C503.292 314.344 503.036 314.154 502.703 314.023C502.37 313.893 501.99 313.828 501.562 313.828ZM502.172 311.609H500.953V309.391H502.172V311.609ZM508.891 322.969H499.562V321.938H508.891V322.969ZM500.766 322.359H499.562V318.969H500.766V322.359ZM525.734 312.969H521.938V311.984H525.734V312.969ZM525.641 315.859H521.828V314.844H525.641V315.859ZM526.75 317.734H525.516V309.391H526.75V317.734ZM522.453 310.422C522.448 311.594 522.182 312.659 521.656 313.617C521.135 314.57 520.388 315.391 519.414 316.078C518.445 316.76 517.286 317.302 515.938 317.703L515.422 316.734C516.615 316.38 517.638 315.919 518.492 315.352C519.352 314.784 520.008 314.13 520.461 313.391C520.914 312.646 521.141 311.839 521.141 310.969V310.422H522.453ZM521.969 311.453H516.125V310.422H521.969V311.453ZM522.203 317.875C523.135 317.875 523.951 317.982 524.648 318.195C525.352 318.409 525.891 318.716 526.266 319.117C526.641 319.513 526.828 319.984 526.828 320.531C526.828 321.078 526.641 321.555 526.266 321.961C525.891 322.362 525.352 322.669 524.648 322.883C523.951 323.096 523.135 323.203 522.203 323.203C521.26 323.203 520.438 323.096 519.734 322.883C519.036 322.669 518.5 322.362 518.125 321.961C517.75 321.555 517.562 321.078 517.562 320.531C517.562 319.984 517.75 319.513 518.125 319.117C518.5 318.716 519.036 318.409 519.734 318.195C520.438 317.982 521.26 317.875 522.203 317.875ZM522.203 318.859C521.51 318.859 520.904 318.924 520.383 319.055C519.867 319.185 519.469 319.378 519.188 319.633C518.906 319.888 518.766 320.188 518.766 320.531C518.766 320.875 518.906 321.172 519.188 321.422C519.469 321.672 519.867 321.865 520.383 322C520.904 322.135 521.51 322.203 522.203 322.203C522.885 322.203 523.482 322.135 523.992 322C524.508 321.865 524.906 321.672 525.188 321.422C525.469 321.172 525.609 320.875 525.609 320.531C525.609 320.188 525.469 319.888 525.188 319.633C524.906 319.378 524.508 319.185 523.992 319.055C523.482 318.924 522.885 318.859 522.203 318.859ZM540.578 317.797H539.344V309.375H540.578V317.797ZM539.891 314.625H536.984V313.609H539.891V314.625ZM540.578 323.078H531.5V318.547H540.578V323.078ZM532.719 322.078H539.375V319.531H532.719V322.078ZM537.188 311.844H529.078V310.844H537.188V311.844ZM533.125 312.562C533.75 312.562 534.307 312.667 534.797 312.875C535.286 313.083 535.667 313.375 535.938 313.75C536.214 314.125 536.354 314.552 536.359 315.031C536.354 315.526 536.214 315.961 535.938 316.336C535.667 316.706 535.286 316.995 534.797 317.203C534.307 317.411 533.75 317.516 533.125 317.516C532.5 317.516 531.945 317.411 531.461 317.203C530.977 316.995 530.596 316.706 530.32 316.336C530.044 315.961 529.906 315.526 529.906 315.031C529.906 314.552 530.044 314.125 530.32 313.75C530.596 313.375 530.977 313.083 531.461 312.875C531.951 312.667 532.505 312.562 533.125 312.562ZM533.125 313.516C532.724 313.516 532.367 313.578 532.055 313.703C531.747 313.828 531.508 314.008 531.336 314.242C531.164 314.477 531.078 314.74 531.078 315.031C531.078 315.333 531.164 315.599 531.336 315.828C531.508 316.057 531.747 316.24 532.055 316.375C532.367 316.505 532.724 316.573 533.125 316.578C533.526 316.573 533.88 316.505 534.188 316.375C534.5 316.24 534.742 316.057 534.914 315.828C535.086 315.599 535.172 315.333 535.172 315.031C535.172 314.74 535.086 314.477 534.914 314.242C534.742 314.008 534.5 313.828 534.188 313.703C533.88 313.578 533.526 313.516 533.125 313.516ZM533.734 311.562H532.531V309.25H533.734V311.562Z" fill="black"/>
</svg>
