<svg width="160" height="73" viewBox="0 0 160 73" fill="none" xmlns="http://www.w3.org/2000/svg">
<path fill-rule="evenodd" clip-rule="evenodd" d="M129.911 0L160 19.3235H146.527V19.3237C146.527 22.1864 128.4 45.8041 93.6565 53.6766C86.4621 55.3068 78.033 56.4607 69.1499 57.2549H77.0404V71.5686H83.0826V57.2549H110.273V71.5686H116.316V57.2549H143.506V71.5686H146.527V73.0003H10.5742V71.5686H16.6161V58.6375C10.0871 58.484 4.38175 58.2369 0 57.9707C5.81324 57.9387 11.3479 57.8289 16.6161 57.6479V57.2549H25.6586C106.417 52.977 118.34 30.8433 113.294 19.3237V19.3235H99.8225L129.911 0ZM43.8067 58.6318V71.5686H49.8498V58.4435C47.8278 58.5194 45.8106 58.5818 43.8067 58.6318Z" fill="#353535"/>
<path d="M44.3261 6.0166L34.0713 36.057L44.2484 65.9062H36.635L26.7686 36.057L36.7904 6.0166H44.3261ZM19.3105 65.9062V6.0166H26.3025V65.9062H19.3105Z" fill="white"/>
<path d="M61.9449 6.0166H69.0145V57.4872C69.0145 63.0998 66.5803 65.9062 61.7118 65.9062H53.0885C48.22 65.9062 45.7858 63.0998 45.7858 57.4872V6.0166H52.8554V56.1478C52.8554 57.2958 53.0108 58.0612 53.3215 58.4439C53.6323 58.7628 54.2538 58.9222 55.186 58.9222H59.6143C60.5983 58.9222 61.2198 58.7628 61.4788 58.4439C61.7895 58.0612 61.9449 57.2958 61.9449 56.1478V6.0166Z" fill="white"/>
<path d="M90.8807 29.2645V15.5836C90.8807 14.4356 90.7253 13.7021 90.4146 13.3832C90.1038 13.0005 89.4823 12.8092 88.55 12.8092H80.7812V32.0389H88.55C89.4823 32.0389 90.1038 31.8794 90.4146 31.5605C90.7253 31.1779 90.8807 30.4125 90.8807 29.2645ZM90.8807 56.3391V41.6059C90.8807 40.4579 90.7253 39.7244 90.4146 39.4055C90.1038 39.0228 89.4823 38.8315 88.55 38.8315H80.7812V59.1136H88.55C89.4823 59.1136 90.1038 58.9541 90.4146 58.6352C90.7253 58.2525 90.8807 57.4872 90.8807 56.3391ZM73.7893 6.0166H90.6476C95.5161 6.0166 97.9503 8.82293 97.9503 14.4356V29.6471C97.9503 33.0275 96.9145 35.0047 94.8428 35.5787C96.9145 36.2165 97.9503 38.0661 97.9503 41.1276V57.4872C97.9503 63.0998 95.5161 65.9062 90.6476 65.9062H73.7893V6.0166Z" fill="white"/>
<path d="M103.092 6.0166H110.084V65.9062H103.092V6.0166Z" fill="white"/>
<path d="M138.048 23.5243H130.979V15.5836C130.979 14.4356 130.823 13.7021 130.513 13.3832C130.202 13.0005 129.58 12.8092 128.648 12.8092H124.686C123.754 12.8092 123.132 13.0005 122.821 13.3832C122.511 13.7021 122.355 14.4356 122.355 15.5836V56.4348C122.355 57.5828 122.511 58.3482 122.821 58.7309C123.132 59.0498 123.754 59.2092 124.686 59.2092H128.648C129.58 59.2092 130.202 59.0498 130.513 58.7309C130.823 58.3482 130.979 57.5828 130.979 56.4348V41.7973H127.094V35.1003H138.048V57.4872C138.048 63.1636 138.048 66.0018 138.048 66.0018H122.511C117.694 66.0018 115.286 63.1636 115.286 57.4872V14.4356C115.286 8.82293 117.694 6.0166 122.511 6.0166H130.823C135.64 6.0166 138.048 8.82293 138.048 14.4356V23.5243Z" fill="white"/>
</svg>
