<svg width="241" height="52" viewBox="0 0 241 52" fill="none" xmlns="http://www.w3.org/2000/svg">
<path fill-rule="evenodd" clip-rule="evenodd" d="M90.9375 0L112 13.5L102.569 13.5C102.569 15.5 89.8801 32 65.5596 37.5C60.5232 38.6389 54.6225 39.4451 48.4039 40H53.9281V50H58.1577V40H77.1911V50H81.4208V40H100.454V50H102.569V51H100.454H81.4208H77.1911H58.1577H53.9281H34.8946H30.665H11.6316H7.40189V50H11.6316V40.9658C7.06117 40.8586 3.06729 40.6859 0 40.5C4.06937 40.4776 7.94376 40.4009 11.6316 40.2745V40H17.9592C74.492 37.0116 82.8384 21.548 79.3059 13.5L69.8753 13.5L90.9375 0ZM30.665 40.9618V50H34.8946V40.8303C33.4794 40.8833 32.0675 40.9269 30.665 40.9618Z" fill="#E5E6E9"/>
<path d="M31.4864 4L24.318 25.0335L31.4321 45.933H26.1101L19.2133 25.0335L26.2187 4H31.4864ZM14 45.933V4H18.8875V45.933H14Z" fill="#9E1F15"/>
<path d="M43.8023 4H48.7441V40.0383C48.7441 43.9681 47.0425 45.933 43.6393 45.933H37.6114C34.2083 45.933 32.5067 43.9681 32.5067 40.0383V4H37.4485V39.1005C37.4485 39.9043 37.5571 40.4402 37.7743 40.7081C37.9916 40.9314 38.426 41.0431 39.0777 41.0431H42.1731C42.861 41.0431 43.2954 40.9314 43.4764 40.7081C43.6936 40.4402 43.8023 39.9043 43.8023 39.1005V4Z" fill="#9E1F15"/>
<path d="M64.0289 20.2775V10.6986C64.0289 9.89474 63.9203 9.38118 63.7031 9.1579C63.4859 8.88995 63.0514 8.75598 62.3998 8.75598H56.9692V22.2201H62.3998C63.0514 22.2201 63.4859 22.1085 63.7031 21.8852C63.9203 21.6172 64.0289 21.0813 64.0289 20.2775ZM64.0289 39.2344V28.9187C64.0289 28.1148 63.9203 27.6013 63.7031 27.378C63.4859 27.11 63.0514 26.9761 62.3998 26.9761H56.9692V41.177H62.3998C63.0514 41.177 63.4859 41.0654 63.7031 40.8421C63.9203 40.5742 64.0289 40.0383 64.0289 39.2344ZM52.0817 4H63.866C67.2692 4 68.9707 5.96491 68.9707 9.89474V20.5455C68.9707 22.9123 68.2467 24.2967 66.7985 24.6986C68.2467 25.1451 68.9707 26.4402 68.9707 28.5837V40.0383C68.9707 43.9681 67.2692 45.933 63.866 45.933H52.0817V4Z" fill="#9E1F15"/>
<path d="M72.5647 4H77.4521V45.933H72.5647V4Z" fill="#9E1F15"/>
<path d="M97 16.2584H92.0582V10.6986C92.0582 9.89474 91.9496 9.38118 91.7324 9.1579C91.5151 8.88995 91.0807 8.75598 90.429 8.75598H87.6595C87.0078 8.75598 86.5733 8.88995 86.3561 9.1579C86.1389 9.38118 86.0303 9.89474 86.0303 10.6986V39.3014C86.0303 40.1053 86.1389 40.6411 86.3561 40.9091C86.5733 41.1324 87.0078 41.244 87.6595 41.244H90.429C91.0807 41.244 91.5151 41.1324 91.7324 40.9091C91.9496 40.6411 92.0582 40.1053 92.0582 39.3014V29.0526H89.3429V24.3636H97V40.0383C97 44.0128 97 46 97 46H86.1389C82.772 46 81.0885 44.0128 81.0885 40.0383V9.89474C81.0885 5.96491 82.772 4 86.1389 4H91.9496C95.3165 4 97 5.96491 97 9.89474V16.2584Z" fill="#9E1F15"/>
<path d="M122.938 11.7969H113.906V10.7812H122.938V11.7969ZM125.219 21.2969H112.562V20.2812H125.219V21.2969ZM118.734 20.8125H117.531V15.3125H118.734V20.8125ZM123.703 12.3438C123.693 13.4948 123.656 14.5234 123.594 15.4297C123.536 16.3359 123.401 17.3854 123.188 18.5781L121.938 18.4375C122.099 17.6354 122.216 16.875 122.289 16.1562C122.367 15.4375 122.414 14.8125 122.43 14.2812C122.451 13.7448 122.464 13.0729 122.469 12.2656V12.1719V10.7812H123.703V12.1719V12.3438ZM137.891 23.2969H136.672V9.375H137.891V23.2969ZM137.016 13.5781H133.891V12.5469H137.016V13.5781ZM127.953 19C129.115 19.0052 130.164 18.9792 131.102 18.9219C132.044 18.8646 133.031 18.7552 134.062 18.5938L134.172 19.625C133.12 19.7865 132.12 19.8984 131.172 19.9609C130.224 20.0182 129.151 20.0469 127.953 20.0469H126.922V19H127.953ZM132.984 15.5781H128.141V19.2656H126.922V14.5781H131.781V11.6562H126.875V10.6406H132.984V15.5781ZM136.922 17.375H133.781V16.3438H136.922V17.375ZM152.094 23.2656H150.922V9.375H152.094V23.2656ZM151.234 15.9844H148.516V14.9688H151.234V15.9844ZM148.875 22.5469H147.75V9.6875H148.875V22.5469ZM141.625 18.7812C142.755 18.7812 143.695 18.7552 144.445 18.7031C145.201 18.651 145.964 18.5469 146.734 18.3906L146.844 19.4219C146.062 19.5833 145.292 19.6901 144.531 19.7422C143.771 19.7943 142.802 19.8229 141.625 19.8281H140.734V18.7812H141.625ZM145.938 12.0938H141.953V19.2656H140.734V11.0781H145.938V12.0938ZM162.359 11.875H154.078V10.875H162.359V11.875ZM158.219 12.5938C158.88 12.599 159.461 12.7057 159.961 12.9141C160.466 13.1172 160.857 13.4089 161.133 13.7891C161.414 14.1641 161.557 14.6042 161.562 15.1094C161.557 15.6042 161.414 16.0417 161.133 16.4219C160.857 16.7969 160.466 17.0885 159.961 17.2969C159.456 17.5052 158.875 17.6094 158.219 17.6094C157.557 17.6094 156.971 17.5052 156.461 17.2969C155.956 17.0885 155.565 16.7969 155.289 16.4219C155.013 16.0417 154.875 15.6042 154.875 15.1094C154.875 14.6042 155.013 14.1641 155.289 13.7891C155.565 13.4089 155.956 13.1172 156.461 12.9141C156.966 12.7057 157.552 12.599 158.219 12.5938ZM158.219 13.5469C157.786 13.5469 157.404 13.612 157.07 13.7422C156.742 13.8724 156.49 14.0547 156.312 14.2891C156.135 14.5234 156.047 14.7969 156.047 15.1094C156.047 15.4115 156.135 15.6771 156.312 15.9062C156.49 16.1354 156.742 16.3125 157.07 16.4375C157.404 16.5625 157.786 16.625 158.219 16.625C158.646 16.625 159.026 16.5625 159.359 16.4375C159.693 16.3125 159.948 16.1354 160.125 15.9062C160.307 15.6771 160.401 15.4115 160.406 15.1094C160.401 14.7969 160.307 14.5234 160.125 14.2891C159.948 14.0547 159.693 13.8724 159.359 13.7422C159.026 13.612 158.646 13.5469 158.219 13.5469ZM164.906 18.0625H163.688V9.375H164.906V18.0625ZM167 14.2656H164.562V13.2344H167V14.2656ZM164.906 23.2656H163.688V19.8281H155.812V18.8281H164.906V23.2656ZM158.828 11.4219H157.609V9.3125H158.828V11.4219ZM178.203 11.7969H169.203V10.7812H178.203V11.7969ZM180.531 21.2969H167.875V20.2812H180.531V21.2969ZM172.234 20.6719H171.016V15.7031H172.234V20.6719ZM179.031 12.4062C179.026 13.1875 179.013 13.8516 178.992 14.3984C178.977 14.9453 178.932 15.5651 178.859 16.2578C178.792 16.9505 178.682 17.6927 178.531 18.4844L177.328 18.3438C177.479 17.599 177.589 16.8906 177.656 16.2188C177.729 15.5417 177.773 14.9453 177.789 14.4297C177.81 13.9089 177.823 13.2396 177.828 12.4219V12.3281V10.7812H179.031V12.3281V12.4062ZM175.688 20.6719H174.484V15.7031H175.688V20.6719ZM124.453 47.2656H123.266V33.375H124.453V47.2656ZM120.969 39.7188H117.406V38.6875H120.969V39.7188ZM121.609 46.5469H120.438V33.7188H121.609V46.5469ZM113.984 42.8906C115.167 42.8854 116.122 42.8568 116.852 42.8047C117.581 42.7474 118.318 42.6354 119.062 42.4688L119.188 43.5156C118.417 43.6719 117.654 43.7786 116.898 43.8359C116.143 43.888 115.172 43.9167 113.984 43.9219H113.109V42.8906H113.984ZM118.344 36.1094H114.297V43.2812H113.109V35.0938H118.344V36.1094ZM137.844 47.2969H136.609V33.375H137.844V47.2969ZM130.453 34.4531C131.141 34.4531 131.753 34.651 132.289 35.0469C132.826 35.4427 133.245 36.0078 133.547 36.7422C133.849 37.4766 134 38.3281 134 39.2969C134 40.2656 133.849 41.1146 133.547 41.8438C133.245 42.5729 132.826 43.1354 132.289 43.5312C131.753 43.9271 131.141 44.125 130.453 44.125C129.766 44.125 129.154 43.9271 128.617 43.5312C128.081 43.1354 127.661 42.5729 127.359 41.8438C127.057 41.1146 126.906 40.2656 126.906 39.2969C126.906 38.3281 127.057 37.4766 127.359 36.7422C127.661 36.0078 128.081 35.4427 128.617 35.0469C129.154 34.651 129.766 34.4531 130.453 34.4531ZM130.453 35.5469C129.995 35.5469 129.586 35.7031 129.227 36.0156C128.867 36.3281 128.589 36.7682 128.391 37.3359C128.193 37.9036 128.094 38.5573 128.094 39.2969C128.094 40.0417 128.193 40.6979 128.391 41.2656C128.589 41.8281 128.867 42.263 129.227 42.5703C129.586 42.8776 129.995 43.0312 130.453 43.0312C130.917 43.0312 131.326 42.8776 131.68 42.5703C132.039 42.263 132.318 41.8281 132.516 41.2656C132.714 40.6979 132.812 40.0417 132.812 39.2969C132.812 38.5521 132.714 37.8984 132.516 37.3359C132.318 36.7682 132.039 36.3281 131.68 36.0156C131.326 35.7031 130.917 35.5469 130.453 35.5469ZM151.734 47.2969H150.516V33.375H151.734V47.2969ZM150.719 39.6406H147.578V38.625H150.719V39.6406ZM141.922 42.9219C143.359 42.9167 144.534 42.888 145.445 42.8359C146.357 42.7786 147.271 42.6667 148.188 42.5L148.328 43.5156C147.339 43.6771 146.367 43.7891 145.414 43.8516C144.466 43.9089 143.302 43.9375 141.922 43.9375H140.859V42.9219H141.922ZM147.344 35.6719H142.094V43.2656H140.859V34.6562H147.344V35.6719ZM146.734 39.5625H141.766V38.5625H146.734V39.5625ZM158.5 37.1094C158.5 38.1094 158.331 39.0859 157.992 40.0391C157.654 40.9922 157.188 41.8438 156.594 42.5938C156.005 43.3385 155.349 43.9062 154.625 44.2969L153.844 43.3125C154.516 42.9844 155.128 42.4922 155.68 41.8359C156.237 41.1745 156.677 40.4297 157 39.6016C157.328 38.7734 157.495 37.9427 157.5 37.1094V34.5781H158.5V37.1094ZM158.703 37.1094C158.703 37.9062 158.865 38.7031 159.188 39.5C159.51 40.2917 159.945 41 160.492 41.625C161.039 42.25 161.641 42.724 162.297 43.0469L161.547 44.0312C160.828 43.6562 160.177 43.1094 159.594 42.3906C159.01 41.6719 158.549 40.8542 158.211 39.9375C157.878 39.0156 157.714 38.0729 157.719 37.1094V34.5781H158.703V37.1094ZM164.797 47.2656H163.578V33.375H164.797V47.2656ZM167.125 40.0781H164.516V39.0156H167.125V40.0781ZM179.328 47.2969H178.094V33.375H179.328V47.2969ZM171.938 34.4531C172.625 34.4531 173.237 34.651 173.773 35.0469C174.31 35.4427 174.729 36.0078 175.031 36.7422C175.333 37.4766 175.484 38.3281 175.484 39.2969C175.484 40.2656 175.333 41.1146 175.031 41.8438C174.729 42.5729 174.31 43.1354 173.773 43.5312C173.237 43.9271 172.625 44.125 171.938 44.125C171.25 44.125 170.638 43.9271 170.102 43.5312C169.565 43.1354 169.146 42.5729 168.844 41.8438C168.542 41.1146 168.391 40.2656 168.391 39.2969C168.391 38.3281 168.542 37.4766 168.844 36.7422C169.146 36.0078 169.565 35.4427 170.102 35.0469C170.638 34.651 171.25 34.4531 171.938 34.4531ZM171.938 35.5469C171.479 35.5469 171.07 35.7031 170.711 36.0156C170.352 36.3281 170.073 36.7682 169.875 37.3359C169.677 37.9036 169.578 38.5573 169.578 39.2969C169.578 40.0417 169.677 40.6979 169.875 41.2656C170.073 41.8281 170.352 42.263 170.711 42.5703C171.07 42.8776 171.479 43.0312 171.938 43.0312C172.401 43.0312 172.81 42.8776 173.164 42.5703C173.523 42.263 173.802 41.8281 174 41.2656C174.198 40.6979 174.297 40.0417 174.297 39.2969C174.297 38.5521 174.198 37.8984 174 37.3359C173.802 36.7682 173.523 36.3281 173.164 36.0156C172.81 35.7031 172.401 35.5469 171.938 35.5469ZM192.531 38.2656H188.672V37.25H192.531V38.2656ZM193.219 43.625H191.984V33.3906H193.219V43.625ZM193.609 46.9688H184.297V45.9375H193.609V46.9688ZM185.531 46.3594H184.297V42.5781H185.531V46.3594ZM185.531 34.2812C186.203 34.2812 186.81 34.4271 187.352 34.7188C187.898 35.0104 188.328 35.4167 188.641 35.9375C188.958 36.4531 189.12 37.0417 189.125 37.7031C189.12 38.3594 188.958 38.9479 188.641 39.4688C188.328 39.9896 187.898 40.3984 187.352 40.6953C186.81 40.9922 186.203 41.1406 185.531 41.1406C184.844 41.1406 184.227 40.9922 183.68 40.6953C183.133 40.3984 182.703 39.9922 182.391 39.4766C182.078 38.9557 181.922 38.3646 181.922 37.7031C181.922 37.0417 182.078 36.4531 182.391 35.9375C182.703 35.4167 183.133 35.0104 183.68 34.7188C184.227 34.4271 184.844 34.2812 185.531 34.2812ZM185.531 35.3594C185.068 35.3594 184.651 35.4583 184.281 35.6562C183.917 35.8542 183.628 36.1328 183.414 36.4922C183.201 36.8464 183.094 37.25 183.094 37.7031C183.094 38.1562 183.201 38.5625 183.414 38.9219C183.628 39.276 183.917 39.5573 184.281 39.7656C184.651 39.9688 185.068 40.0729 185.531 40.0781C185.984 40.0729 186.393 39.9688 186.758 39.7656C187.128 39.5573 187.417 39.276 187.625 38.9219C187.833 38.5625 187.938 38.1562 187.938 37.7031C187.938 37.2552 187.833 36.8516 187.625 36.4922C187.417 36.1328 187.128 35.8542 186.758 35.6562C186.393 35.4583 185.984 35.3594 185.531 35.3594ZM202.25 35.4219C202.25 36.3854 201.979 37.2839 201.438 38.1172C200.896 38.9453 200.193 39.6458 199.328 40.2188C198.469 40.7917 197.568 41.1875 196.625 41.4062L196.062 40.375C196.88 40.2188 197.682 39.8958 198.469 39.4062C199.26 38.9167 199.909 38.3203 200.414 37.6172C200.919 36.9141 201.172 36.1823 201.172 35.4219V34.3594H202.25V35.4219ZM202.453 35.4219C202.453 36.1823 202.708 36.9141 203.219 37.6172C203.729 38.3203 204.38 38.9193 205.172 39.4141C205.969 39.9036 206.776 40.224 207.594 40.375L207.031 41.4062C206.094 41.1875 205.193 40.7917 204.328 40.2188C203.464 39.6458 202.76 38.9453 202.219 38.1172C201.677 37.2839 201.406 36.3854 201.406 35.4219V34.3594H202.453V35.4219ZM208.25 45.375H195.531V44.3594H208.25V45.375ZM221.688 35.875H213.406V34.875H221.688V35.875ZM217.547 36.5938C218.208 36.599 218.789 36.7057 219.289 36.9141C219.794 37.1172 220.185 37.4089 220.461 37.7891C220.742 38.1641 220.885 38.6042 220.891 39.1094C220.885 39.6042 220.742 40.0417 220.461 40.4219C220.185 40.7969 219.794 41.0885 219.289 41.2969C218.784 41.5052 218.203 41.6094 217.547 41.6094C216.885 41.6094 216.299 41.5052 215.789 41.2969C215.284 41.0885 214.893 40.7969 214.617 40.4219C214.341 40.0417 214.203 39.6042 214.203 39.1094C214.203 38.6042 214.341 38.1641 214.617 37.7891C214.893 37.4089 215.284 37.1172 215.789 36.9141C216.294 36.7057 216.88 36.599 217.547 36.5938ZM217.547 37.5469C217.115 37.5469 216.732 37.612 216.398 37.7422C216.07 37.8724 215.818 38.0547 215.641 38.2891C215.464 38.5234 215.375 38.7969 215.375 39.1094C215.375 39.4115 215.464 39.6771 215.641 39.9062C215.818 40.1354 216.07 40.3125 216.398 40.4375C216.732 40.5625 217.115 40.625 217.547 40.625C217.974 40.625 218.354 40.5625 218.688 40.4375C219.021 40.3125 219.276 40.1354 219.453 39.9062C219.635 39.6771 219.729 39.4115 219.734 39.1094C219.729 38.7969 219.635 38.5234 219.453 38.2891C219.276 38.0547 219.021 37.8724 218.688 37.7422C218.354 37.612 217.974 37.5469 217.547 37.5469ZM224.234 42.0625H223.016V33.375H224.234V42.0625ZM226.328 38.2656H223.891V37.2344H226.328V38.2656ZM224.234 47.2656H223.016V43.8281H215.141V42.8281H224.234V47.2656ZM218.156 35.4219H216.938V33.3125H218.156V35.4219ZM232.469 44H231.234V41.7031H232.469V44ZM238.594 47.2656H237.375V33.375H238.594V47.2656ZM227.859 43.5625C229.589 43.5469 231.141 43.5104 232.516 43.4531C233.891 43.3958 235.203 43.2865 236.453 43.125L236.547 44.0625C235.167 44.2865 233.732 44.4349 232.242 44.5078C230.753 44.5755 229.161 44.6094 227.469 44.6094L227.281 43.5625H227.859ZM236.094 36.0938H227.578V35.0938H236.094V36.0938ZM231.828 36.8906C232.495 36.8906 233.083 36.9948 233.594 37.2031C234.104 37.4115 234.497 37.7135 234.773 38.1094C235.049 38.5 235.188 38.9531 235.188 39.4688C235.188 39.9792 235.049 40.4271 234.773 40.8125C234.497 41.1979 234.102 41.4948 233.586 41.7031C233.076 41.9115 232.49 42.0156 231.828 42.0156C231.167 42.0156 230.583 41.9115 230.078 41.7031C229.578 41.4948 229.188 41.1979 228.906 40.8125C228.63 40.4271 228.495 39.9792 228.5 39.4688C228.495 38.9531 228.63 38.5 228.906 38.1094C229.188 37.7135 229.578 37.4115 230.078 37.2031C230.583 36.9948 231.167 36.8906 231.828 36.8906ZM231.828 37.8438C231.401 37.8438 231.023 37.9115 230.695 38.0469C230.367 38.1823 230.109 38.375 229.922 38.625C229.734 38.8698 229.641 39.151 229.641 39.4688C229.641 39.7865 229.732 40.0651 229.914 40.3047C230.096 40.5391 230.354 40.724 230.688 40.8594C231.021 40.9896 231.401 41.0521 231.828 41.0469C232.255 41.0521 232.635 40.9896 232.969 40.8594C233.302 40.724 233.56 40.5391 233.742 40.3047C233.924 40.0651 234.016 39.7865 234.016 39.4688C234.016 39.151 233.924 38.8698 233.742 38.625C233.56 38.375 233.302 38.1823 232.969 38.0469C232.635 37.9115 232.255 37.8438 231.828 37.8438ZM232.469 35.625H231.234V33.3906H232.469V35.625Z" fill="#101010"/>
</svg>
