<svg width="112" height="51" viewBox="0 0 112 51" fill="none" xmlns="http://www.w3.org/2000/svg">
<path fill-rule="evenodd" clip-rule="evenodd" d="M90.9375 0L112 13.5L102.569 13.5C102.569 15.5 89.8801 32 65.5596 37.5C60.5232 38.6389 54.6225 39.4451 48.4039 40H53.9281V50H58.1577V40H77.1911V50H81.4208V40H100.454V50H102.569V51H100.454H81.4208H77.1911H58.1577H53.9281H34.8946H30.665H11.6316H7.40189V50H11.6316V40.9658C7.06117 40.8586 3.06729 40.6859 0 40.5C4.06937 40.4776 7.94376 40.4009 11.6316 40.2745V40H17.9592C74.492 37.0116 82.8384 21.548 79.3059 13.5L69.8753 13.5L90.9375 0ZM30.665 40.9618V50H34.8946V40.8303C33.4794 40.8833 32.0675 40.9269 30.665 40.9618Z" fill="#E5E6E9"/>
<path d="M31.4864 4L24.318 25.0335L31.4321 45.933H26.1101L19.2133 25.0335L26.2187 4H31.4864ZM14 45.933V4H18.8875V45.933H14Z" fill="#9E1F15"/>
<path d="M43.8023 4H48.7441V40.0383C48.7441 43.9681 47.0425 45.933 43.6393 45.933H37.6114C34.2083 45.933 32.5067 43.9681 32.5067 40.0383V4H37.4485V39.1005C37.4485 39.9043 37.5571 40.4402 37.7743 40.7081C37.9916 40.9314 38.426 41.0431 39.0777 41.0431H42.1731C42.861 41.0431 43.2954 40.9314 43.4764 40.7081C43.6936 40.4402 43.8023 39.9043 43.8023 39.1005V4Z" fill="#9E1F15"/>
<path d="M64.0289 20.2775V10.6986C64.0289 9.89474 63.9203 9.38118 63.7031 9.1579C63.4859 8.88995 63.0514 8.75598 62.3998 8.75598H56.9692V22.2201H62.3998C63.0514 22.2201 63.4859 22.1085 63.7031 21.8852C63.9203 21.6172 64.0289 21.0813 64.0289 20.2775ZM64.0289 39.2344V28.9187C64.0289 28.1148 63.9203 27.6013 63.7031 27.378C63.4859 27.11 63.0514 26.9761 62.3998 26.9761H56.9692V41.177H62.3998C63.0514 41.177 63.4859 41.0654 63.7031 40.8421C63.9203 40.5742 64.0289 40.0383 64.0289 39.2344ZM52.0817 4H63.866C67.2692 4 68.9707 5.96491 68.9707 9.89474V20.5455C68.9707 22.9123 68.2467 24.2967 66.7985 24.6986C68.2467 25.1451 68.9707 26.4402 68.9707 28.5837V40.0383C68.9707 43.9681 67.2692 45.933 63.866 45.933H52.0817V4Z" fill="#9E1F15"/>
<path d="M72.5647 4H77.4521V45.933H72.5647V4Z" fill="#9E1F15"/>
<path d="M97 16.2584H92.0582V10.6986C92.0582 9.89474 91.9496 9.38118 91.7324 9.1579C91.5151 8.88995 91.0807 8.75598 90.429 8.75598H87.6595C87.0078 8.75598 86.5733 8.88995 86.3561 9.1579C86.1389 9.38118 86.0303 9.89474 86.0303 10.6986V39.3014C86.0303 40.1053 86.1389 40.6411 86.3561 40.9091C86.5733 41.1324 87.0078 41.244 87.6595 41.244H90.429C91.0807 41.244 91.5151 41.1324 91.7324 40.9091C91.9496 40.6411 92.0582 40.1053 92.0582 39.3014V29.0526H89.3429V24.3636H97V40.0383C97 44.0128 97 46 97 46H86.1389C82.772 46 81.0885 44.0128 81.0885 40.0383V9.89474C81.0885 5.96491 82.772 4 86.1389 4H91.9496C95.3165 4 97 5.96491 97 9.89474V16.2584Z" fill="#9E1F15"/>
</svg>
