<svg width="18" height="18" viewBox="0 0 18 18" fill="none" xmlns="http://www.w3.org/2000/svg">
<g clip-path="url(#clip0_1290_10570)">
<path d="M12.535 3.34289C12.8645 3.01342 13.0292 2.84868 13.213 2.77256C13.458 2.67107 13.7334 2.67107 13.9784 2.77256C14.1622 2.84868 14.3269 3.01342 14.6564 3.34289V3.34289C14.9858 3.67236 15.1506 3.83709 15.2267 4.02086C15.3282 4.26589 15.3282 4.5412 15.2267 4.78623C15.1506 4.97 14.9858 5.13474 14.6564 5.46421L7.56231 12.5583C7.43775 12.6828 7.37547 12.7451 7.30368 12.7953C7.23189 12.8456 7.15204 12.8828 6.99235 12.9571L3.34265 14.6566L5.04213 11.0069C5.11649 10.8472 5.15367 10.7674 5.20391 10.6956C5.25415 10.6238 5.31643 10.5615 5.44099 10.4369L12.535 3.34289Z" stroke="white" stroke-width="0.8" stroke-linecap="round" stroke-linejoin="round"/>
<path d="M11.1719 4.70703L13.2932 6.82835" stroke="white" stroke-width="0.8"/>
</g>
<defs>
<clipPath id="clip0_1290_10570">
<rect width="18" height="18" fill="white"/>
</clipPath>
</defs>
</svg>
