<svg width="18" height="18" viewBox="0 0 18 18" fill="none" xmlns="http://www.w3.org/2000/svg">
<g clip-path="url(#clip0_2015_15285)">
<path d="M13 6.51298C13 7.74039 12.7323 8.95908 12.2155 10.0724L10.2691 14.2659C9.96297 14.9254 9.80992 15.2551 9.63093 15.4006C9.2634 15.6995 8.7366 15.6995 8.36907 15.4006C8.19008 15.2551 8.03703 14.9254 7.73093 14.2659L5.78448 10.0724C5.26771 8.95908 5 7.74039 5 6.51298V6.51298C5 4.30384 6.79086 2.5 9 2.5V2.5C11.2091 2.5 13 4.30384 13 6.51298V6.51298Z" stroke="#979797"/>
<path d="M10.5 6.5C10.5 7.32843 9.82843 8 9 8C8.17157 8 7.5 7.32843 7.5 6.5C7.5 5.67157 8.17157 5 9 5C9.82843 5 10.5 5.67157 10.5 6.5Z" fill="#979797"/>
</g>
<defs>
<clipPath id="clip0_2015_15285">
<rect width="18" height="18" fill="white"/>
</clipPath>
</defs>
</svg>
