<svg width="19" height="19" viewBox="0 0 19 19" fill="none" xmlns="http://www.w3.org/2000/svg">
<path fill-rule="evenodd" clip-rule="evenodd" d="M0 9.5C0 4.256 4.256 0 9.5 0C14.744 0 19 4.256 19 9.5C19 14.744 14.744 19 9.5 19C4.256 19 0 14.744 0 9.5ZM3.515 10.165L6.9255 13.5755C7.296 13.946 7.904 13.946 8.265 13.5755L15.4755 6.365C15.846 5.9945 15.846 5.396 15.4755 5.0255C15.105 4.655 14.5065 4.655 14.136 5.0255L7.6 11.5615L4.8545 8.8255C4.484 8.455 3.8855 8.455 3.515 8.8255C3.1445 9.196 3.1445 9.7945 3.515 10.165Z" fill="black"/>
</svg>
