<svg width="27" height="27" viewBox="0 0 27 27" fill="none" xmlns="http://www.w3.org/2000/svg">
<g clip-path="url(#clip0_826_2295)">
<path d="M3.75 11.4458C3.75 9.23222 3.75 8.12545 4.43766 7.43778C5.12532 6.75012 6.2321 6.75012 8.44565 6.75012H18.5543C20.7679 6.75012 21.8747 6.75012 22.5623 7.43778C23.25 8.12545 23.25 9.23222 23.25 11.4458V16.3045C23.25 18.518 23.25 19.6248 22.5623 20.3125C21.8747 21.0001 20.7679 21.0001 18.5543 21.0001H8.44565C6.2321 21.0001 5.12532 21.0001 4.43766 20.3125C3.75 19.6248 3.75 18.518 3.75 16.3045V11.4458Z" stroke="white" stroke-width="2"/>
<path d="M5.10059 7.2L7.8658 9.27391C10.5788 11.3087 11.9354 12.3261 13.5006 12.3261C15.0658 12.3261 16.4223 11.3087 19.1354 9.27391L21.9006 7.2" stroke="white" stroke-width="2"/>
</g>
<defs>
<clipPath id="clip0_826_2295">
<rect width="27" height="27" fill="white"/>
</clipPath>
</defs>
</svg>
