<svg width="83" height="42" viewBox="0 0 83 42" fill="none" xmlns="http://www.w3.org/2000/svg">
<path d="M17.4864 0L10.318 21.0335L17.4321 41.933H12.1101L5.21333 21.0335L12.2187 0H17.4864ZM0 41.933V0H4.88749V41.933H0Z" fill="#9E1F15"/>
<path d="M29.8023 0H34.7441V36.0383C34.7441 39.9681 33.0425 41.933 29.6393 41.933H23.6114C20.2083 41.933 18.5067 39.9681 18.5067 36.0383V0H23.4485V35.1005C23.4485 35.9043 23.5571 36.4402 23.7743 36.7081C23.9916 36.9314 24.426 37.0431 25.0777 37.0431H28.1731C28.861 37.0431 29.2954 36.9314 29.4764 36.7081C29.6936 36.4402 29.8023 35.9043 29.8023 35.1005V0Z" fill="#9E1F15"/>
<path d="M50.0289 16.2775V6.69857C50.0289 5.89474 49.9203 5.38118 49.7031 5.1579C49.4859 4.88995 49.0514 4.75598 48.3998 4.75598H42.9692V18.2201H48.3998C49.0514 18.2201 49.4859 18.1085 49.7031 17.8852C49.9203 17.6172 50.0289 17.0813 50.0289 16.2775ZM50.0289 35.2344V24.9187C50.0289 24.1148 49.9203 23.6013 49.7031 23.378C49.4859 23.11 49.0514 22.9761 48.3998 22.9761H42.9692V37.177H48.3998C49.0514 37.177 49.4859 37.0654 49.7031 36.8421C49.9203 36.5742 50.0289 36.0383 50.0289 35.2344ZM38.0817 0H49.866C53.2692 0 54.9707 1.96491 54.9707 5.89474V16.5455C54.9707 18.9123 54.2467 20.2967 52.7985 20.6986C54.2467 21.1451 54.9707 22.4402 54.9707 24.5837V36.0383C54.9707 39.9681 53.2692 41.933 49.866 41.933H38.0817V0Z" fill="#9E1F15"/>
<path d="M58.5647 0H63.4521V41.933H58.5647V0Z" fill="#9E1F15"/>
<path d="M83 12.2584H78.0582V6.69857C78.0582 5.89474 77.9496 5.38118 77.7324 5.1579C77.5151 4.88995 77.0807 4.75598 76.429 4.75598H73.6595C73.0078 4.75598 72.5733 4.88995 72.3561 5.1579C72.1389 5.38118 72.0303 5.89474 72.0303 6.69857V35.3014C72.0303 36.1053 72.1389 36.6411 72.3561 36.9091C72.5733 37.1324 73.0078 37.244 73.6595 37.244H76.429C77.0807 37.244 77.5151 37.1324 77.7324 36.9091C77.9496 36.6411 78.0582 36.1053 78.0582 35.3014V25.0526H75.3429V20.3636H83V36.0383C83 40.0128 83 42 83 42H72.1389C68.772 42 67.0885 40.0128 67.0885 36.0383V5.89474C67.0885 1.96491 68.772 0 72.1389 0H77.9496C81.3165 0 83 1.96491 83 5.89474V12.2584Z" fill="#9E1F15"/>
</svg>
