<svg width="52" height="52" viewBox="0 0 52 52" fill="none" xmlns="http://www.w3.org/2000/svg">
<rect x="1" y="1" width="50" height="50" rx="5" fill="#F9FAFC" stroke="#D9D9D9"/>
<path d="M14.25 39C14.25 39 12 39 12 36.75C12 34.5 14.25 27.75 25.5 27.75C36.75 27.75 39 34.5 39 36.75C39 39 36.75 39 36.75 39H14.25ZM25.5 25.5C27.2902 25.5 29.0071 24.7888 30.273 23.523C31.5388 22.2571 32.25 20.5402 32.25 18.75C32.25 16.9598 31.5388 15.2429 30.273 13.977C29.0071 12.7112 27.2902 12 25.5 12C23.7098 12 21.9929 12.7112 20.727 13.977C19.4612 15.2429 18.75 16.9598 18.75 18.75C18.75 20.5402 19.4612 22.2571 20.727 23.523C21.9929 24.7888 23.7098 25.5 25.5 25.5Z" fill="#9E1F15"/>
</svg>
