<svg width="17" height="17" viewBox="0 0 17 17" fill="none" xmlns="http://www.w3.org/2000/svg">
<path d="M16.1786 16.8582C16.6185 17.2956 17.2974 16.6205 16.8575 16.1926L13.2718 12.6175C14.5296 11.2336 15.2249 9.43397 15.2224 7.5686C15.2224 3.39446 11.8089 0 7.61122 0C3.41358 0 0 3.39446 0 7.5686C0 11.7427 3.41358 15.1372 7.61122 15.1372C9.50447 15.1372 11.2543 14.4431 12.5929 13.2926L16.1786 16.8582ZM0.955228 7.5686C0.955228 3.91742 3.94808 0.950829 7.61027 0.950829C11.282 0.950829 14.2653 3.91742 14.2653 7.5686C14.2653 11.2198 11.282 14.1864 7.61027 14.1864C3.94808 14.1864 0.955228 11.2198 0.955228 7.5686Z" fill="#979797"/>
</svg>
